<?xml version="1.0" encoding="UTF-8" standalone="no"?>
<!-- Created with Inkscape (http://www.inkscape.org/) -->

<svg
   width="300"
   height="300"
   viewBox="0 0 79.375 79.375002"
   version="1.1"
   id="svg1"
   xml:space="preserve"
   xmlns="http://www.w3.org/2000/svg"
   xmlns:svg="http://www.w3.org/2000/svg"><defs
     id="defs1" /><g
     id="layer1"><path
       style="fill:#000000;stroke-width:0.144713"
       d="M 38.428401,76.460084 C 37.90448,76.409927 37.033956,76.183326 36.630717,75.99216 35.72079,75.560777 35.154828,75.171302 34.31872,74.401097 33.600548,73.739551 33.321848,73.509367 32.880386,73.213185 32.480271,72.944729 31.478075,72.201614 30.942865,71.776524 30.784984,71.651135 30.449049,71.38412 30.196348,71.183172 29.587001,70.698605 28.690382,69.928603 28.15497,69.430052 27.633213,68.944219 27.319045,68.574585 26.844723,67.888491 26.455585,67.325612 26.326533,67.164328 25.849022,66.644109 25.675058,66.454585 25.325217,66.059793 25.071598,65.76681 24.589217,65.209555 23.963905,64.581053 23.664696,64.352735 23.568036,64.278999 23.337755,64.129327 23.152953,64.020175 22.968152,63.911022 22.750188,63.761393 22.668587,63.687672 22.343074,63.393596 22.163318,62.782103 22.116056,61.8081 l -0.02658,-0.547687 -0.120026,0.0259 c -0.06601,0.0142 -0.19756,0.06495 -0.292325,0.112671 -0.238176,0.11989 -0.55815,0.210139 -0.745084,0.210139 -0.191721,0 -0.646077,-0.210902 -0.794001,-0.368553 -0.212823,-0.226819 -0.21659,-0.257891 -0.229457,-1.893296 -0.0065,-0.830271 0.0034,-1.888637 0.0221,-2.351932 0.03786,-0.938496 0.0054,-1.390724 -0.151267,-2.10587 -0.16798,-0.766901 -0.206757,-1.065006 -0.206693,-1.588986 9.7e-5,-0.775405 0.116027,-1.40266 0.38213,-2.067579 0.205269,-0.512912 0.286204,-0.781358 0.519483,-1.722995 0.05983,-0.241471 0.131066,-0.43606 0.178396,-0.487253 0.0731,-0.07906 0.07698,-0.115232 0.05358,-0.500504 -0.01446,-0.237973 -0.06583,-0.571529 -0.120342,-0.781252 -0.0586,-0.225457 -0.107482,-0.555176 -0.127313,-0.858743 -0.03767,-0.576651 -0.141385,-0.884905 -0.481402,-1.430833 -0.454653,-0.72999 -0.677443,-1.222124 -0.729958,-1.61246 -0.05802,-0.431237 -0.540794,-1.202206 -1.083021,-1.729539 -0.756307,-0.735528 -1.271158,-1.214354 -1.305729,-1.214354 -0.01953,0 -0.274341,-0.223901 -0.566258,-0.497556 -0.291916,-0.273664 -0.540227,-0.497652 -0.551803,-0.497758 -0.06295,-7.25e-4 -1.153138,-1.236989 -1.295093,-1.468805 -0.345786,-0.564697 -0.401589,-0.763886 -0.295937,-1.056319 0.07404,-0.204938 0.18943,-0.264859 0.636187,-0.330395 0.316395,-0.04639 0.465815,-0.09094 0.704524,-0.209897 0.166627,-0.08302 0.324071,-0.151011 0.349872,-0.151011 0.0258,0 0.130687,-0.0576 0.233078,-0.127892 0.102393,-0.07036 0.280933,-0.160791 0.396755,-0.201016 0.373332,-0.12964 1.222741,-0.07558 1.898518,0.120906 0.358966,0.104359 0.933121,0.394927 1.120613,0.567122 0.09789,0.08989 0.307195,0.265063 0.465133,0.389244 0.709611,0.557931 1.807392,1.552056 2.167455,1.962795 0.324923,0.370658 1.025321,1.481176 1.380204,2.188377 0.09857,0.196444 0.129017,0.231971 0.147621,0.172302 0.07879,-0.252702 0.315831,-0.811928 0.424436,-1.001298 0.07019,-0.122393 0.189222,-0.336088 0.264514,-0.474882 0.07768,-0.143182 0.277217,-0.399914 0.461258,-0.593467 0.178397,-0.18763 0.352689,-0.384209 0.387314,-0.436853 0.242284,-0.368387 0.780383,-0.849746 1.005096,-0.899093 l 0.112439,-0.02475 -0.05731,-0.19858 c -0.148699,-0.514939 -0.59855,-1.29247 -0.811191,-1.402096 -0.326989,-0.168552 -0.504292,-0.458897 -0.504292,-0.825787 0,-0.272959 0.05638,-0.425283 0.22453,-0.606554 0.182023,-0.196221 0.349009,-0.25503 0.721591,-0.254093 0.435122,9.66e-4 0.566165,0.06205 0.913358,0.424839 0.327748,0.342467 0.438369,0.502523 0.724607,1.048431 0.374399,0.714044 0.448161,0.824569 0.603442,0.904245 0.07897,0.04049 0.143578,0.06455 0.143578,0.05344 0,-0.09607 -0.216632,-0.895333 -0.341646,-1.260425 -0.274176,-0.800727 -0.187996,-1.186075 0.313522,-1.40182 0.1493,-0.06427 0.232212,-0.07712 0.368813,-0.05741 0.225602,0.03258 0.566455,0.186374 0.706331,0.31878 0.227748,0.215579 0.455603,0.818992 0.657043,1.739966 0.03566,0.163207 0.07288,0.296734 0.08263,0.296734 0.0097,0 0.124433,-0.219677 0.254809,-0.488171 0.42742,-0.880248 0.532899,-1.025488 0.868398,-1.195798 0.370891,-0.188278 0.506322,-0.213927 0.712962,-0.135006 0.471142,0.179927 0.714169,0.668552 0.629584,1.265829 -0.03654,0.258056 -0.241161,0.725699 -0.535209,1.223196 -0.193979,0.328212 -0.190577,0.366504 0.0433,0.487775 0.111249,0.0577 0.289959,0.136813 0.397111,0.17584 0.107162,0.03904 0.43604,0.219996 0.730841,0.402156 1.033413,0.638543 1.295924,0.946334 1.292116,1.515022 -0.0039,0.524374 -0.28128,1.336428 -0.54007,1.578885 -0.05935,0.05557 -0.236233,0.156799 -0.39311,0.224896 -0.283852,0.123215 -0.287349,0.123689 -0.727488,0.09746 -0.24324,-0.0145 -0.692086,-0.06398 -0.997441,-0.110023 -0.692192,-0.104329 -1.144072,-0.106939 -1.566234,-0.0087 -0.290181,0.06727 -0.338292,0.09181 -0.488868,0.248884 -0.420683,0.438902 -0.816546,1.525044 -0.816546,2.240384 0,0.421697 0.06505,0.547483 0.359572,0.695893 0.434427,0.218846 1.11101,0.686683 1.313485,0.908217 0.108428,0.118643 0.310361,0.37809 0.44874,0.576564 0.206852,0.296705 0.277153,0.36919 0.395429,0.407733 0.209018,0.06814 0.434359,0.233527 0.660744,0.48501 0.33836,0.375849 0.976545,1.76065 1.310508,2.843612 l 0.07673,0.248885 0.407162,-0.412893 c 0.494376,-0.501326 0.797528,-0.733442 1.250056,-0.95713 0.48531,-0.239896 1.389583,-0.522954 1.933036,-0.605094 0.622839,-0.09413 1.155719,-0.374139 1.565675,-0.822694 0.376632,-0.412092 0.357959,-0.304621 0.371993,-2.14106 0.01073,-1.398707 0.02754,-1.788251 0.129467,-2.98688 0.06446,-0.758116 0.142196,-1.550685 0.172775,-1.761278 0.03054,-0.210582 0.09113,-0.658559 0.134474,-0.995498 0.233749,-1.815534 0.484596,-3.195956 0.88016,-4.843519 0.108709,-0.452761 0.239809,-1.029962 0.291341,-1.282664 0.05151,-0.252702 0.144371,-0.648991 0.206302,-0.880633 0.228366,-0.854086 0.289843,-1.261239 0.343975,-2.278182 0.05799,-1.088482 -0.09568,-2.713449 -0.474225,-5.015801 -0.03286,-0.200059 -0.111947,-0.725574 -0.175685,-1.167806 -0.06379,-0.442233 -0.124703,-0.857859 -0.135469,-0.923612 -0.01614,-0.09861 -0.04794,-0.130183 -0.181503,-0.180304 -0.154132,-0.05784 -0.941781,-0.242061 -1.770033,-0.413992 -0.210583,-0.04371 -0.414265,-0.09609 -0.452634,-0.116379 -0.05779,-0.03056 -0.128057,0.01931 -0.409115,0.290255 -0.186653,0.179937 -0.430946,0.38532 -0.542873,0.456408 -0.593961,0.37725 -1.365703,0.6828 -2.041349,0.808215 -0.168474,0.03128 -0.513067,0.101767 -0.765779,0.156662 -0.420402,0.09132 -0.542467,0.100416 -1.43582,0.106994 l -0.976362,0.0072 -0.880634,-0.182007 c -1.262532,-0.260938 -2.02315,-0.479798 -2.430902,-0.699466 -0.05287,-0.02849 -0.345984,-0.18478 -0.65134,-0.347312 -1.162976,-0.619024 -1.710943,-1.006568 -2.979193,-2.107017 -0.321128,-0.278636 -1.083386,-1.127007 -1.308541,-1.456363 -0.112881,-0.165119 -0.319199,-0.438057 -0.458489,-0.606527 -0.490116,-0.592793 -0.767333,-1.06732 -0.767333,-1.313484 0,-0.09846 -0.05695,-0.262783 -0.169646,-0.489453 -0.266723,-0.536487 -0.454218,-1.041852 -0.848115,-2.285959 -0.413832,-1.307078 -0.491237,-1.608872 -0.55199,-2.15215 -0.02355,-0.210587 -0.07604,-0.641334 -0.11664,-0.957215 -0.0406,-0.315882 -0.09974,-0.841393 -0.131418,-1.167806 C 20.47849,10.742088 20.4356,10.319954 20.41486,10.130426 20.39412,9.940897 20.36721,9.3550806 20.35506,8.8286136 20.33376,7.9042742 20.281852,7.0580408 20.16251,5.6889092 20.041243,4.2977362 20.003966,4.059285 19.827241,3.5442536 c -0.132604,-0.386447 -0.09844,-0.4499371 0.316164,-0.5876178 0.735352,-0.2441949 2.949532,0.1052587 4.248976,0.6705994 1.740511,0.7572287 3.158287,1.6979263 4.063672,2.6962504 0.673481,0.7426224 0.978343,1.2037104 1.614577,2.4419741 0.540563,1.0520634 1.149302,2.1253923 1.524087,2.6872853 0.400609,0.600595 1.337192,1.851968 1.634371,2.183685 0.123929,0.138325 0.361999,0.422618 0.529052,0.631761 0.167054,0.209143 0.442497,0.518098 0.612082,0.686569 0.410661,0.40793 1.456338,1.324609 1.833772,1.607538 0.375539,0.281514 1.040536,0.896975 1.337192,1.23758 0.26197,0.300782 0.76198,1.279608 0.923032,1.80695 0.0547,0.178998 0.144728,0.416871 0.200146,0.528603 0.09775,0.197102 0.100109,0.218325 0.07934,0.712818 l -0.02136,0.509669 0.235885,0.041 c 0.322625,0.05607 1.756957,0.386267 1.780587,0.409902 0.01044,0.0105 0.08138,-0.07475 0.157525,-0.189407 0.328192,-0.494215 1.125448,-1.303665 1.734177,-1.760715 0.180796,-0.135744 0.18213,-0.18673 0.02397,-0.910544 -0.112893,-0.516573 -0.118479,-0.579781 -0.09907,-1.121748 0.03382,-0.943351 0.176833,-1.554216 0.578371,-2.469616 0.22452,-0.511823 0.452693,-0.894227 0.903907,-1.514852 0.993351,-1.366312 2.121584,-2.544338 3.465087,-3.618003 0.822375,-0.6572079 1.190386,-0.9068647 2.204334,-1.495428 1.318984,-0.7656234 2.73443,-1.4395842 3.768684,-1.7944385 0.29483,-0.1011557 0.742806,-0.2653846 0.995508,-0.3649518 0.949068,-0.3739459 2.162882,-0.7967532 2.699348,-0.9402646 0.305354,-0.081685 0.805017,-0.2189924 1.110372,-0.30512 0.305354,-0.086131 0.774283,-0.2075649 1.042062,-0.2698477 0.267789,-0.062289 0.991449,-0.2831918 1.608121,-0.4909055 0.616683,-0.207707 1.250472,-0.4204908 1.408412,-0.472851 0.157939,-0.052363 0.390538,-0.1381427 0.516894,-0.1906228 0.126346,-0.052479 0.455476,-0.183553 0.731392,-0.2912704 0.275916,-0.1077174 0.670428,-0.2836035 0.87668,-0.3908552 0.479097,-0.2491267 0.6093,-0.2320869 0.746074,0.097639 0.08863,0.2136313 0.08206,1.7737387 -0.0097,2.335602 -0.03441,0.2105909 -0.09825,0.6671802 -0.14181,1.0146516 -0.04359,0.3474676 -0.106552,0.7696022 -0.139982,0.9380717 -0.109481,0.5517368 -0.643453,2.0808527 -0.986974,2.8263052 -0.457583,0.993003 -1.789624,3.166255 -2.574064,4.199657 -1.035201,1.363727 -1.17965,1.537505 -1.703889,2.04989 -1.148973,1.122963 -1.662022,1.558495 -2.636664,2.238274 -1.439607,1.004074 -2.527287,1.577148 -3.962875,2.087943 -0.718625,0.255695 -1.289159,0.406636 -2.02833,0.536619 -0.480305,0.08446 -0.641337,0.09409 -1.573252,0.09409 -1.071616,0 -1.978461,-0.06228 -2.582029,-0.177321 -0.178998,-0.03412 -0.446062,-0.06582 -0.593477,-0.07044 -0.275549,-0.0086 -0.876362,-0.117972 -1.416674,-0.257791 -0.650605,-0.168357 -0.643608,-0.16777 -0.808245,-0.06782 -0.24672,0.149793 -1.03841,0.798788 -1.206459,0.989005 -0.0864,0.09781 -0.237045,0.287729 -0.334735,0.42204 -0.09769,0.13431 -0.23286,0.318691 -0.300377,0.409734 l -0.122751,0.165533 0.168996,1.160099 c 0.09298,0.638054 0.186808,1.252124 0.208573,1.364602 0.05577,0.28789 0.221871,1.51562 0.306534,2.265114 0.140418,1.24301 0.173597,2.095403 0.125669,3.227957 -0.04842,1.143357 -0.10603,1.611948 -0.283522,2.304749 -0.06475,0.252711 -0.173896,0.717919 -0.242554,1.033799 -0.06862,0.31588 -0.213782,0.944768 -0.3225,1.397528 -0.592733,2.46847 -1.000437,5.175626 -1.245532,8.270346 -0.135576,1.71188 -0.0346,5.077075 0.17292,5.762434 0.05615,0.185464 0.08756,0.419494 0.102053,0.759728 l 0.02088,0.491709 0.310669,-0.02562 c 0.415929,-0.03431 1.521788,-0.199344 1.78713,-0.266677 0.411115,-0.10433 0.982944,-0.400503 2.044713,-1.059043 0.439848,-0.272814 0.582227,-0.307733 1.341483,-0.329005 0.604833,-0.01692 1.256222,0.03702 1.478914,0.122432 0.04543,0.0174 0.131981,-0.0662 0.324491,-0.313463 0.14439,-0.185484 0.598899,-0.681841 1.010005,-1.103018 0.771558,-0.790452 1.01534,-1.06317 1.21505,-1.359246 0.202832,-0.300687 0.46255,-0.848064 0.599528,-1.263518 0.251483,-0.762784 0.386789,-1.028678 0.649077,-1.275503 0.248334,-0.233692 0.499654,-0.369132 1.388319,-0.74816 0.623602,-0.265972 0.731286,-0.281705 1.625073,-0.237403 0.569441,0.02822 0.836148,0.05934 1.128542,0.131662 0.944246,0.233555 1.59892,0.522201 1.902448,0.838775 0.152335,0.158878 0.19569,0.185977 0.225042,0.140669 0.02001,-0.03093 0.167865,-0.28012 0.328598,-0.55389 0.453697,-0.772767 0.648373,-0.938071 1.104757,-0.938071 0.281831,0 0.470543,0.07558 0.636968,0.254944 0.170215,0.183503 0.224597,0.33286 0.22366,0.614218 -9.66e-4,0.284276 -0.0078,0.299972 -0.474564,1.102022 l -0.222461,0.382208 0.135479,0.115551 c 0.07451,0.0635 0.365073,0.23574 0.645687,0.382642 0.402648,0.210797 0.563411,0.319756 0.762618,0.516895 0.311676,0.308438 0.395014,0.516972 0.372592,0.93232 -0.01855,0.343821 -0.146623,0.623129 -0.488269,1.064969 -0.101654,0.131467 -0.05566,0.169991 0.24615,0.206445 0.364242,0.04398 0.609501,0.154519 0.862454,0.388714 0.178952,0.16568 0.240496,0.25302 0.285842,0.405731 0.124858,0.420432 0.06031,0.7208 -0.230647,1.07355 l -0.199836,0.242274 0.177134,0.111134 c 0.458085,0.287435 0.688655,0.620915 0.574119,0.830357 -0.0288,0.05267 -0.08872,0.162666 -0.133198,0.244401 -0.04446,0.08176 -0.09026,0.243365 -0.101869,0.359186 -0.05702,0.569925 -0.41244,1.041279 -1.031084,1.367462 l -0.336939,0.177656 -2.81e-4,0.232512 c -7.33e-4,0.474728 -0.315289,1.532515 -0.577366,1.941417 -0.141887,0.221369 -0.457408,0.522325 -0.728144,0.694521 -0.284644,0.181038 -0.631866,0.290626 -1.421111,0.448527 l -0.219059,0.04378 0.09249,0.141104 c 0.402156,0.613222 0.432513,1.960368 0.06959,3.089316 -0.169683,0.527865 -0.299189,0.786558 -0.53808,1.074854 -0.103431,0.124829 -0.297353,0.390636 -0.430927,0.590695 -0.133566,0.200058 -0.31821,0.453697 -0.410294,0.563643 -0.09211,0.109944 -0.292617,0.385619 -0.445609,0.612613 -0.486914,0.722423 -1.265596,1.740151 -1.634061,2.135715 -1.034514,1.110595 -2.144519,2.205871 -2.506093,2.472837 -0.450112,0.332349 -1.163382,0.921603 -1.524879,1.259769 -0.238196,0.222828 -0.631247,0.535354 -1.327624,1.055631 -0.15794,0.118006 -0.556356,0.415629 -0.885369,0.661382 -1.117032,0.834359 -1.797327,1.384857 -2.462362,1.992552 -0.169856,0.155214 -0.403595,0.361361 -0.519417,0.458105 -0.115821,0.09674 -0.417349,0.375191 -0.67005,0.618769 -0.252702,0.243578 -0.545599,0.51126 -0.650876,0.59484 -0.105287,0.0836 -0.330522,0.272573 -0.500542,0.419978 -0.643966,0.558337 -0.849021,0.712604 -1.165045,0.876507 -0.532252,0.276041 -0.582547,0.283338 -0.940729,0.136484 -0.277414,-0.113743 -0.34267,-0.163545 -0.755245,-0.576332 -0.510506,-0.510778 -0.483686,-0.509047 -0.559834,-0.03624 -0.04156,0.258306 -0.05344,0.284053 -0.294782,0.640843 -0.254528,0.376284 -0.495893,0.611406 -0.698523,0.68045 -0.188364,0.06418 -0.570813,0.0694 -1.134939,0.01537 z m 4.098258,-12.562302 c 0.125592,-0.15219 0.278149,-0.342971 0.339008,-0.42395 l 0.11065,-0.147251 -0.08563,-0.351387 C 42.735397,62.337857 42.173775,61.14089 41.809582,60.671082 41.695316,60.523676 41.55977,60.334143 41.508364,60.249906 l -0.09346,-0.153156 -0.02938,0.344603 c -0.03393,0.398116 -0.0144,0.747251 0.09056,1.625373 0.09239,0.772795 0.164144,1.09889 0.309597,1.407744 0.115512,0.24526 0.428869,0.70002 0.482363,0.70002 0.01662,0 0.132928,-0.124519 0.258529,-0.276708 z m 1.464959,-2.393008 c -0.189166,-0.196106 -1.280064,-1.039182 -1.542913,-1.192386 -0.126347,-0.07364 -0.259883,-0.159274 -0.296734,-0.190278 -0.123805,-0.104146 -0.06862,-7.24e-4 0.16543,0.309839 0.127844,0.169654 0.345394,0.533876 0.483445,0.809366 0.264754,0.528358 0.58563,1.309455 0.586374,1.427422 2.89e-4,0.03847 0.164734,-0.178245 0.365536,-0.481571 l 0.365102,-0.551513 z m -4.503333,0.590385 c 0.08708,-0.361207 0.08591,-0.569972 -0.0048,-0.849746 -0.07325,-0.225621 -0.154595,-0.756588 -0.155745,-1.016634 -9.67e-4,-0.27176 -0.04987,-0.256307 -0.368127,0.116836 -0.165739,0.194347 -0.306959,0.377492 -0.313831,0.407008 -0.0068,0.02947 0.0373,0.135227 0.09822,0.234928 0.06088,0.09971 0.12074,0.208234 0.133004,0.241182 0.128501,0.345288 0.503654,1.183195 0.52168,1.16518 0.01285,-0.01276 0.05325,-0.14727 0.08978,-0.298754 z m 5.315029,-1.462368 c 0.0174,-0.04213 0.07471,-0.172612 0.127303,-0.289979 l 0.09568,-0.213415 -0.31242,0.09076 c -0.207568,0.06031 -0.470746,0.0998 -0.784219,0.117685 l -0.471809,0.02697 0.337799,0.255534 c 0.185783,0.140543 0.405249,0.3251 0.487698,0.410109 l 0.149899,0.154587 0.169218,-0.237819 c 0.09307,-0.130791 0.183473,-0.272271 0.20089,-0.31439 z m -6.101306,-0.831065 c 0.542911,-0.625757 0.491718,-0.504369 0.421581,-0.999556 -0.03343,-0.235625 -0.07142,-0.561933 -0.08447,-0.72514 -0.01314,-0.163206 -0.03256,-0.296743 -0.04339,-0.296743 -0.01073,0 -0.10836,0.02512 -0.216894,0.05577 -0.198725,0.05615 -0.699064,0.122219 -1.274121,0.168233 l -0.311008,0.02484 0.47151,0.899779 c 0.5366,1.024009 0.666416,1.263528 0.684779,1.263528 0.0068,0 0.165498,-0.175829 0.351957,-0.390741 z m 5.92915,-0.136715 c 0.126356,-0.0403 0.335817,-0.127091 0.465478,-0.192839 l 0.23575,-0.119552 0.105191,-0.317127 c 0.05789,-0.174427 0.137431,-0.39282 0.176834,-0.48533 0.06205,-0.145607 0.06437,-0.176457 0.01759,-0.229728 -0.02967,-0.03382 -0.09837,-0.149995 -0.152538,-0.258123 -0.07597,-0.151678 -0.175394,-0.256075 -0.435111,-0.456965 -0.185146,-0.143201 -0.724299,-0.640554 -1.198118,-1.105221 L 42.984738,55.65528 42.391271,55.351888 c -0.326418,-0.16686 -0.753963,-0.403895 -0.950117,-0.526763 -0.390297,-0.244447 -0.581966,-0.350044 -0.600668,-0.330908 -0.0068,0.0068 0.0029,0.158858 0.02088,0.337847 0.01817,0.178999 0.05161,0.592521 0.07432,0.918935 0.04417,0.633702 0.151058,1.410605 0.271422,1.971861 0.04069,0.189533 0.08969,0.529796 0.109009,0.756152 l 0.03508,0.411551 0.218702,0.201063 c 0.380458,0.349764 0.814324,0.550441 1.384712,0.640467 0.375936,0.05934 1.409977,0.01798 1.676538,-0.06707 z m 1.703347,-2.821993 0.07645,-0.123698 -0.136572,-0.14062 c -0.174302,-0.179473 -0.737413,-0.463228 -1.032619,-0.520326 -0.125245,-0.02426 -0.379947,-0.03865 -0.566002,-0.03208 l -0.338271,0.01189 0.142862,0.191437 c 0.261187,0.350015 0.492124,0.558927 0.817824,0.73984 0.177327,0.0985 0.409878,0.259013 0.516768,0.356702 l 0.194357,0.177608 0.124374,-0.268513 c 0.06842,-0.147686 0.158781,-0.324182 0.200822,-0.392221 z m -8.743894,0.342033 c 0.335798,-0.05847 0.742294,-0.186481 0.982392,-0.309366 0.515446,-0.263806 0.642063,-0.49542 0.730021,-1.335278 0.03305,-0.31588 0.07181,-0.815543 0.08602,-1.110372 l 0.0258,-0.536041 -0.184826,0.210593 c -0.231083,0.263284 -0.737355,0.762502 -1.200901,1.184161 -0.350151,0.318509 -0.605984,0.662135 -1.056802,1.419468 -0.08147,0.136881 -0.170977,0.276534 -0.198879,0.310341 -0.168784,0.204523 0.184894,0.276574 0.817166,0.166494 z m -0.919379,-1.057845 c 0.108804,-0.179579 0.209684,-0.396744 0.22419,-0.482586 l 0.02638,-0.156084 -0.177955,-0.02667 c -0.192017,-0.0288 -0.770466,-0.0058 -0.808226,0.03151 -0.03556,0.03556 0.451533,0.98909 0.497391,0.973811 0.02223,-0.0078 0.129429,-0.160405 0.238224,-0.339983 z m 10.494906,-0.534775 0.09413,-0.101142 -0.114257,-0.530619 c -0.06282,-0.291853 -0.136078,-0.659864 -0.162742,-0.817794 -0.08669,-0.51358 -0.04919,-1.71162 0.06272,-2.003376 0.01498,-0.03904 -0.01914,-0.06234 -0.118933,-0.08108 -0.07703,-0.0144 -0.487234,-0.122296 -0.911647,-0.239665 -0.719244,-0.198907 -0.806797,-0.214603 -1.28857,-0.231081 -0.456017,-0.01557 -0.57553,-0.0058 -1.014653,0.08572 -0.409193,0.08504 -0.651331,0.108699 -1.360919,0.132976 -1.011184,0.0346 -1.069935,0.05248 -1.319283,0.401354 -0.258221,0.361293 -0.268426,0.519881 -0.06311,0.98102 0.243056,0.545928 0.381598,0.716286 0.904553,1.11217 0.283658,0.21473 1.403337,0.823352 1.652907,0.898456 0.09481,0.02851 0.476912,0.07046 0.849157,0.09317 1.092299,0.06659 1.656695,0.249899 2.175639,0.706554 l 0.182256,0.160366 0.169286,-0.232957 c 0.09307,-0.128124 0.211646,-0.278468 0.263419,-0.334088 z m -9.976059,-0.874042 c 0.474438,-0.04987 0.715194,-0.180913 1.132252,-0.61647 0.403529,-0.421418 0.483011,-0.528453 0.791739,-1.066185 0.157514,-0.274361 0.27321,-0.5326 0.325612,-0.726811 0.07393,-0.274148 0.07751,-0.335093 0.03933,-0.677609 -0.0231,-0.207007 -0.05566,-0.402861 -0.07249,-0.435238 -0.01681,-0.03238 -0.0431,-0.179182 -0.05848,-0.32624 -0.01536,-0.147057 -0.06262,-0.379657 -0.104996,-0.516894 -0.04996,-0.161844 -0.09923,-0.516142 -0.14005,-1.008304 l -0.06292,-0.758782 -0.08959,0.09529 c -0.12103,0.12882 -0.576477,0.346497 -1.145165,0.547289 -0.568601,0.200774 -0.732049,0.281609 -0.928812,0.459381 -0.20663,0.186673 -0.60664,0.989583 -0.742555,1.490463 -0.390181,1.437927 -0.567228,1.79808 -1.092647,2.222726 -0.127013,0.102649 -0.231004,0.205964 -0.231072,0.229584 -8.7e-5,0.02358 0.08282,0.170078 0.18414,0.325458 0.101368,0.155378 0.254645,0.403112 0.340641,0.550527 l 0.156364,0.26802 0.683582,-0.01073 c 0.375964,-0.0058 0.832745,-0.02638 1.015078,-0.04552 z M 34.51613,52.751177 c 0.212438,-0.259254 0.399817,-0.603335 0.561246,-1.030609 0.08147,-0.215552 0.176931,-0.460047 0.212206,-0.543318 0.03528,-0.08331 0.120528,-0.333102 0.189437,-0.555186 0.06891,-0.222075 0.153243,-0.467586 0.187426,-0.54558 l 0.06214,-0.1418 -0.147066,0.0519 c -0.57009,0.20114 -1.253612,0.770949 -1.632873,1.361227 -0.08795,0.136881 -0.189427,0.273259 -0.225515,0.303055 -0.105673,0.08727 -0.04494,0.437007 0.113579,0.654162 0.325554,0.445966 0.459941,0.61039 0.499759,0.611453 0.02377,7.35e-4 0.10464,-0.07373 0.179657,-0.165294 z m 13.128168,-2.256049 0.13313,-0.25071 -0.477193,-0.02754 c -0.686779,-0.03963 -1.177957,-0.0087 -1.372932,0.08582 -0.250787,0.121843 -0.817533,0.477782 -0.817533,0.513454 0,0.112178 0.678865,0.315696 1.585313,0.475269 0.29281,0.05152 0.541569,0.10291 0.552809,0.11415 0.01121,0.01121 0.0751,-0.132609 0.141848,-0.319658 0.06679,-0.187041 0.181338,-0.452896 0.254558,-0.590791 z"
       id="path1" /></g></svg>
