<?xml version="1.0" encoding="UTF-8" standalone="no"?>
<!-- Created with Inkscape (http://www.inkscape.org/) -->

<svg
   width="230mm"
   height="70mm"
   viewBox="0 0 230 70"
   version="1.1"
   id="svg1"
   xmlns="http://www.w3.org/2000/svg"
   xmlns:svg="http://www.w3.org/2000/svg">
  <defs
     id="defs1" />
  <g
     id="layer1">
    <path
       id="text1"
       style="font-weight:500;font-size:35.2778px;font-family:Inter;-inkscape-font-specification:'Inter Medium';text-align:start;writing-mode:lr-tb;direction:ltr;text-anchor:start;fill:#000000;stroke-width:0.264583"
       d="m 197.93835,15.322937 c -0.0463,-0.0011 -0.0977,0.01178 -0.15503,0.03824 -0.0917,0.03528 -0.187,0.133828 -0.28577,0.296106 l -0.82579,1.39733 0.25424,0.211357 1.08986,-1.132231 c 0.127,-0.134055 0.20104,-0.250555 0.22221,-0.349332 0.0212,-0.09878 0.0179,-0.179897 -0.0103,-0.243396 -0.0212,-0.0635 -0.0462,-0.109238 -0.0744,-0.13746 -0.0212,-0.02117 -0.0669,-0.04239 -0.13746,-0.06356 -0.0238,-0.01058 -0.0497,-0.01639 -0.0775,-0.01705 z m -13.3103,0.08062 c -0.0565,0.04939 -0.13049,0.09513 -0.22221,0.13746 -0.0917,0.04233 -0.22566,0.07771 -0.40204,0.105936 -0.16934,0.02822 -0.40941,0.04237 -0.71986,0.04237 l -0.0527,0.42323 c 0.127,-0.0071 0.25058,-0.01413 0.37052,-0.02119 l 0.38086,-0.02119 c -0.007,0.07056 -0.0179,0.137522 -0.032,0.201022 -0.007,0.05644 -0.0283,0.18002 -0.0636,0.37052 -0.0494,0.373943 -0.10221,0.789893 -0.15865,1.248502 -0.0564,0.45861 -0.10926,0.931687 -0.15865,1.418518 -0.0494,0.479777 -0.0951,0.94198 -0.13746,1.386479 -0.0353,0.437443 -0.0669,0.828884 -0.0951,1.174605 -0.0212,0.345721 -0.0282,0.60651 -0.0212,0.782898 0.007,0.282222 0.0773,0.497789 0.21136,0.645956 0.13405,0.14111 0.34582,0.211356 0.6351,0.211356 0.21167,0 0.39513,-0.05281 0.55036,-0.158646 0.16227,-0.105833 0.3,-0.236486 0.41289,-0.391708 0.11289,-0.162277 0.20108,-0.327794 0.26458,-0.497127 0.0706,-0.169333 0.1163,-0.314138 0.13746,-0.434082 l -0.29662,-0.0739 c -0.10583,0.380998 -0.23269,0.648863 -0.38085,0.804085 -0.14112,0.148166 -0.27177,0.222209 -0.39171,0.222209 -0.13406,0 -0.21518,-0.05609 -0.2434,-0.168982 -0.0282,-0.119944 -0.0424,-0.247317 -0.0424,-0.381372 0,-0.204611 0.0109,-0.465399 0.032,-0.782898 0.0212,-0.324555 0.0457,-0.681131 0.0739,-1.069186 0.0353,-0.388054 0.0745,-0.782775 0.11679,-1.18494 0.0423,-0.409221 0.0843,-0.801179 0.12661,-1.175122 0.0423,-0.380999 0.0848,-0.719627 0.12712,-1.015959 0.0212,-0.162277 0.0457,-0.349023 0.0739,-0.560689 0.0353,-0.211666 0.0707,-0.426717 0.10594,-0.645439 0.0423,-0.218722 0.0744,-0.41634 0.0956,-0.592729 z m -8.97465,1.206128 c -0.13405,0.472721 -0.31752,0.839654 -0.55035,1.100708 -0.23284,0.261055 -0.59269,0.391708 -1.07952,0.391708 l -0.0315,0.444417 0.94155,-0.01033 c -0.0564,0.507998 -0.10546,0.99799 -0.1478,1.470711 -0.0423,0.465665 -0.0744,0.892488 -0.0956,1.280542 -0.0212,0.380999 -0.0315,0.70599 -0.0315,0.974101 0,0.218721 0.0354,0.4229 0.10594,0.613399 0.0705,0.190499 0.18325,0.346177 0.33848,0.466121 0.16227,0.112889 0.38112,0.168982 0.65629,0.168982 0.33866,0 0.62448,-0.09147 0.85731,-0.274918 0.23989,-0.1905 0.46201,-0.465958 0.66663,-0.82579 l -0.27492,-0.179834 c -0.13406,0.225777 -0.26471,0.391811 -0.39171,0.497644 -0.127,0.105833 -0.2435,0.1728 -0.34933,0.201022 -0.0988,0.02822 -0.1837,0.04237 -0.25425,0.04237 -0.15522,0 -0.26793,-0.04574 -0.33848,-0.137459 -0.0706,-0.09878 -0.11629,-0.219074 -0.13746,-0.360185 -0.0141,-0.148166 -0.0212,-0.289175 -0.0212,-0.42323 0,-0.232832 0.0104,-0.490341 0.0315,-0.772562 0.0212,-0.289277 0.0462,-0.589244 0.0744,-0.899687 0.0282,-0.310444 0.0598,-0.620766 0.0951,-0.931209 0.0423,-0.317499 0.0777,-0.624542 0.10594,-0.920874 l 1.69344,-0.02119 0.0315,-0.402042 h -1.68259 l 0.19017,-1.492416 z m -16.70027,1.376144 c -0.21167,0 -0.39893,0.05281 -0.56121,0.158646 -0.16228,0.105833 -0.29949,0.239766 -0.41238,0.402043 -0.11288,0.162277 -0.20488,0.328311 -0.27543,0.497644 -0.0635,0.162277 -0.10596,0.306566 -0.12713,0.433565 l 0.30696,0.06356 c 0.10584,-0.373943 0.22941,-0.638528 0.37052,-0.79375 0.14817,-0.155221 0.27882,-0.232544 0.39171,-0.232544 0.14111,0 0.22223,0.05989 0.2434,0.179834 0.0282,0.112889 0.0424,0.239745 0.0424,0.380856 0,0.134055 -0.0142,0.367055 -0.0424,0.698665 -0.0282,0.33161 -0.0669,0.733924 -0.11628,1.206645 -0.0423,0.465665 -0.0919,0.983962 -0.14831,1.55546 -0.0494,0.564443 -0.0989,1.150223 -0.14831,1.756999 -0.0212,0.275166 -0.0457,0.521802 -0.0739,0.740523 -0.0212,0.225777 -0.074,0.405964 -0.15864,0.540019 -0.0776,0.134055 -0.21534,0.201021 -0.4129,0.201021 v 0.317294 h 2.0004 v -0.433566 c -0.11289,0.0071 -0.22611,0.01034 -0.339,0.01034 -0.10583,0.0071 -0.21526,0.01413 -0.32815,0.02119 0.0212,-0.07761 0.0353,-0.187035 0.0424,-0.328145 0.0141,-0.134056 0.0283,-0.349107 0.0424,-0.645439 0.0212,-0.289277 0.0495,-0.701947 0.0847,-1.238167 l 0.23306,0.02119 c 0.0847,0.0071 0.17287,0.01034 0.26459,0.01034 0.68438,0 1.25549,-0.144288 1.7141,-0.433565 0.46567,-0.296332 0.81517,-0.705723 1.048,-1.227832 0.23989,-0.522109 0.35967,-1.125322 0.35967,-1.809709 0,-0.373943 -0.0528,-0.716367 -0.15865,-1.02681 -0.0988,-0.310444 -0.25393,-0.55708 -0.4656,-0.740524 -0.21167,-0.190499 -0.48005,-0.28577 -0.8046,-0.28577 -0.20461,0 -0.41587,0.05989 -0.63459,0.179834 -0.21872,0.112888 -0.43429,0.335016 -0.64595,0.666626 -0.20462,0.33161 -0.40551,0.822119 -0.60307,1.471228 h -0.0315 c 0.0353,-0.162278 0.0669,-0.34954 0.0951,-0.561206 0.0353,-0.218722 0.0527,-0.433773 0.0527,-0.645439 0,-0.296332 -0.0561,-0.553841 -0.16898,-0.772563 -0.10583,-0.225777 -0.3176,-0.33848 -0.6351,-0.33848 z m 7.95869,0 c -0.51506,0 -0.96691,0.09855 -1.35496,0.296106 -0.38806,0.190499 -0.71253,0.458881 -0.97358,0.804602 -0.254,0.338665 -0.44455,0.730106 -0.57155,1.174605 -0.127,0.444499 -0.19017,0.913779 -0.19017,1.407666 0,0.66322 0.12686,1.13578 0.38086,1.418001 0.26105,0.282222 0.58173,0.42323 0.96273,0.42323 0.14817,0 0.30713,-0.02831 0.47646,-0.08475 0.16933,-0.04939 0.34244,-0.155016 0.51883,-0.317293 0.18344,-0.162278 0.36311,-0.398558 0.5395,-0.709001 0.18345,-0.317499 0.35984,-0.737245 0.52917,-1.259355 h 0.032 c -0.0494,0.261055 -0.0956,0.511488 -0.13798,0.751376 -0.0353,0.239888 -0.0527,0.462015 -0.0527,0.666626 0,0.282221 0.0599,0.511425 0.17984,0.687813 0.11994,0.176388 0.32084,0.264583 0.60306,0.264583 0.21167,0 0.39893,-0.05281 0.56121,-0.158646 0.16227,-0.105833 0.3,-0.239766 0.41289,-0.402043 0.11289,-0.162277 0.20108,-0.324515 0.26458,-0.486792 0.0706,-0.169333 0.1163,-0.317418 0.13746,-0.444417 l -0.29662,-0.06356 c -0.10583,0.373943 -0.23269,0.638528 -0.38085,0.79375 -0.14112,0.155221 -0.27177,0.232544 -0.39171,0.232544 -0.15522,0 -0.24342,-0.07025 -0.26459,-0.211357 -0.0212,-0.141111 -0.0315,-0.282636 -0.0315,-0.423747 0,-0.169333 0.0141,-0.401816 0.0424,-0.698148 0.0282,-0.303388 0.0636,-0.642016 0.10593,-1.015959 0.0494,-0.380999 0.0984,-0.780033 0.1478,-1.196309 l 0.1695,-1.26969 c -0.22578,-0.05645 -0.46586,-0.0989 -0.71986,-0.127124 -0.254,-0.03528 -0.48648,-0.05271 -0.69814,-0.05271 z m 4.72012,0 c -0.35983,0 -0.67723,0.06697 -0.9524,0.201021 -0.27516,0.127 -0.49073,0.299593 -0.64595,0.518315 -0.15522,0.211666 -0.23255,0.448462 -0.23255,0.709517 0,0.20461 0.0561,0.38756 0.16899,0.549837 0.11994,0.162278 0.27182,0.310879 0.45527,0.444934 0.1905,0.134055 0.38811,0.264191 0.59272,0.391191 0.21873,0.127 0.4305,0.257652 0.63511,0.391707 0.20461,0.127 0.37392,0.264729 0.50798,0.412895 0.13405,0.148166 0.20102,0.31748 0.20102,0.507979 0,0.317499 -0.0953,0.564652 -0.28577,0.74104 -0.1905,0.176389 -0.47632,0.264584 -0.85731,0.264584 -0.1905,0 -0.37017,-0.04246 -0.53951,-0.127124 -0.16933,-0.08467 -0.28255,-0.204963 -0.33899,-0.360185 0.0353,-0.05644 0.0603,-0.112538 0.0744,-0.168982 0.0141,-0.05644 0.0207,-0.109258 0.0207,-0.158647 0,-0.112888 -0.0387,-0.215236 -0.11627,-0.306958 -0.0706,-0.09172 -0.17618,-0.137976 -0.31729,-0.137976 -0.127,0 -0.23643,0.04953 -0.32815,0.148312 -0.0847,0.09172 -0.12712,0.215298 -0.12712,0.37052 0,0.239888 0.0811,0.444583 0.24339,0.613916 0.16228,0.169332 0.37405,0.299985 0.63511,0.391707 0.26105,0.08467 0.53271,0.126607 0.81493,0.126607 0.39511,0 0.74082,-0.06697 1.03715,-0.201021 0.30339,-0.134055 0.53639,-0.317521 0.69866,-0.550354 0.16934,-0.232833 0.25374,-0.497418 0.25374,-0.79375 0,-0.303388 -0.0915,-0.560897 -0.27492,-0.772563 -0.17639,-0.211666 -0.39904,-0.398412 -0.66715,-0.560689 -0.26811,-0.169333 -0.52889,-0.328291 -0.78289,-0.476457 -0.15523,-0.09878 -0.30003,-0.197328 -0.43409,-0.296106 -0.13405,-0.09878 -0.24347,-0.204921 -0.32814,-0.31781 -0.0776,-0.112888 -0.11627,-0.236465 -0.11627,-0.37052 0,-0.169333 0.0495,-0.313621 0.14831,-0.433565 0.0988,-0.127 0.22235,-0.226067 0.37052,-0.296623 0.14816,-0.07055 0.29953,-0.10542 0.45475,-0.10542 0.23989,0 0.42715,0.04194 0.56121,0.126608 0.14111,0.07761 0.2293,0.176678 0.26458,0.296622 -0.0353,0.05645 -0.0603,0.112538 -0.0744,0.168982 -0.0141,0.04939 -0.0212,0.102719 -0.0212,0.159164 0,0.112888 0.0392,0.211439 0.11679,0.296106 0.0776,0.08467 0.17996,0.127124 0.30696,0.127124 0.127,0 0.23262,-0.04246 0.31729,-0.127124 0.0847,-0.09172 0.12712,-0.211502 0.12712,-0.359668 0,-0.211666 -0.0778,-0.395133 -0.23306,-0.550354 -0.14816,-0.155222 -0.34199,-0.275002 -0.58187,-0.359668 -0.23284,-0.08467 -0.48327,-0.127124 -0.75138,-0.127124 z m 8.96379,0 c -0.43038,0 -0.80767,0.09147 -1.13223,0.274918 -0.32455,0.176389 -0.59293,0.419745 -0.8046,0.730188 -0.21166,0.303388 -0.37011,0.649092 -0.47594,1.037146 -0.10583,0.388055 -0.15864,0.787089 -0.15864,1.19631 0,0.684386 0.15844,1.238065 0.47594,1.661397 0.31749,0.416276 0.81128,0.624251 1.48156,0.624251 0.32455,0 0.62124,-0.05609 0.88935,-0.168982 0.26811,-0.112888 0.51475,-0.289278 0.74052,-0.529166 0.22578,-0.239888 0.43755,-0.543651 0.63511,-0.910539 l -0.34934,-0.201021 c -0.15522,0.296332 -0.32781,0.539688 -0.51831,0.730188 -0.1905,0.183443 -0.39192,0.321172 -0.60358,0.412894 -0.20461,0.09172 -0.40879,0.13746 -0.6134,0.13746 -0.27517,0 -0.50109,-0.07404 -0.67748,-0.222209 -0.17639,-0.148166 -0.31032,-0.370294 -0.40204,-0.666626 -0.0847,-0.296332 -0.12713,-0.663265 -0.12713,-1.100708 0.33161,-0.03528 0.67732,-0.09517 1.03715,-0.179834 0.35983,-0.08467 0.69846,-0.19409 1.01596,-0.328145 0.3175,-0.141111 0.57501,-0.317501 0.77256,-0.529167 0.19756,-0.211666 0.29611,-0.462099 0.29611,-0.751375 0,-0.303388 -0.0703,-0.543465 -0.21136,-0.719853 -0.14111,-0.176388 -0.32458,-0.303245 -0.55035,-0.380855 -0.22578,-0.07761 -0.46586,-0.116272 -0.71986,-0.116272 z m 8.04344,0 c -0.43039,0 -0.80768,0.09147 -1.13223,0.274918 -0.32455,0.176389 -0.59294,0.419745 -0.8046,0.730188 -0.21167,0.303388 -0.37011,0.649092 -0.47594,1.037146 -0.10583,0.388055 -0.15916,0.787089 -0.15916,1.19631 0,0.684386 0.15895,1.238065 0.47645,1.661397 0.3175,0.416276 0.81129,0.624251 1.48157,0.624251 0.32455,0 0.62072,-0.05609 0.88883,-0.168982 0.26811,-0.112888 0.51526,-0.289278 0.74104,-0.529166 0.22578,-0.239888 0.43755,-0.543651 0.6351,-0.910539 l -0.34933,-0.201021 c -0.15522,0.296332 -0.32781,0.539688 -0.51831,0.730188 -0.1905,0.183443 -0.39192,0.321172 -0.60358,0.412894 -0.20462,0.09172 -0.40931,0.13746 -0.61392,0.13746 -0.27517,0 -0.50057,-0.07404 -0.67696,-0.222209 -0.17639,-0.148166 -0.31084,-0.370294 -0.40256,-0.666626 -0.0847,-0.296332 -0.12661,-0.663265 -0.12661,-1.100708 0.33161,-0.03528 0.67731,-0.09517 1.03715,-0.179834 0.35983,-0.08467 0.69846,-0.19409 1.01596,-0.328145 0.31749,-0.141111 0.575,-0.317501 0.77256,-0.529167 0.19755,-0.211666 0.2961,-0.462099 0.2961,-0.751375 0,-0.303388 -0.0702,-0.543465 -0.21135,-0.719853 -0.14111,-0.176388 -0.32458,-0.303245 -0.55036,-0.380855 -0.22577,-0.07761 -0.46585,-0.116272 -0.71985,-0.116272 z m 3.51348,0 c -0.21166,0 -0.39841,0.05281 -0.56069,0.158646 -0.16227,0.105833 -0.3,0.239766 -0.41289,0.402043 -0.11289,0.162277 -0.20437,0.328311 -0.27492,0.497644 -0.0635,0.162277 -0.10596,0.306566 -0.12712,0.433565 l 0.2961,0.06356 c 0.10583,-0.373943 0.23321,-0.638528 0.38137,-0.79375 0.14817,-0.155221 0.27831,-0.232544 0.39119,-0.232544 0.14817,0 0.23309,0.06697 0.25425,0.201022 0.0282,0.134055 0.0386,0.271784 0.0315,0.412894 0,0.07056 -0.007,0.16203 -0.0212,0.274919 -0.0141,0.105833 -0.0348,0.275147 -0.063,0.507979 -0.0282,0.232833 -0.0674,0.578537 -0.11679,1.037146 -0.0494,0.444499 -0.0881,0.804355 -0.11627,1.079521 -0.0212,0.275166 -0.0353,0.497293 -0.0424,0.666626 -0.007,0.162277 -0.0103,0.303803 -0.0103,0.423747 v 0.147794 c 0,0.03528 0.003,0.07774 0.0103,0.127124 h 0.8785 c -0.007,-0.09172 -0.0141,-0.162484 -0.0212,-0.211873 v -0.243396 c 0,-0.345721 0.0354,-0.71973 0.10594,-1.121895 0.0705,-0.402166 0.16582,-0.796887 0.28577,-1.184941 0.127,-0.388054 0.27128,-0.737555 0.43356,-1.047998 0.16933,-0.317499 0.34572,-0.560855 0.52917,-0.730188 0.1905,-0.169333 0.38484,-0.233019 0.58239,-0.190686 0.0141,0.141111 0.0669,0.250534 0.15865,0.328145 0.0917,0.07761 0.20114,0.116789 0.32814,0.116789 0.14817,0 0.26467,-0.05333 0.34934,-0.159163 0.0917,-0.105833 0.13746,-0.221817 0.13746,-0.348816 0,-0.1905 -0.0708,-0.339101 -0.21188,-0.444934 -0.14111,-0.112889 -0.3175,-0.168982 -0.52916,-0.168982 -0.22578,0 -0.45499,0.06697 -0.68782,0.201021 -0.22578,0.127 -0.4517,0.356203 -0.67748,0.687813 -0.21872,0.33161 -0.42997,0.80417 -0.63458,1.418002 h -0.032 c 0.0353,-0.204611 0.0669,-0.398433 0.0951,-0.581877 0.0353,-0.190499 0.0565,-0.36361 0.0636,-0.518831 0.0141,-0.366888 -0.0316,-0.659261 -0.13745,-0.877983 -0.10584,-0.218722 -0.31761,-0.328145 -0.63511,-0.328145 z m 4.77335,0 c -0.21166,0 -0.39513,0.05281 -0.55035,0.158646 -0.15522,0.105833 -0.28915,0.239766 -0.40204,0.402043 -0.10584,0.162277 -0.19075,0.328311 -0.25425,0.497644 -0.0635,0.162277 -0.10596,0.306566 -0.12712,0.433565 l 0.29662,0.06356 c 0.10583,-0.373943 0.23269,-0.638528 0.38085,-0.79375 0.14817,-0.155221 0.27882,-0.232544 0.39171,-0.232544 0.11994,0 0.19727,0.05609 0.23254,0.168982 0.0423,0.112889 0.0636,0.215236 0.0636,0.306958 0,0.303388 -0.0212,0.600075 -0.0636,0.889352 -0.0423,0.289277 -0.0914,0.57837 -0.14779,0.867647 -0.0494,0.282221 -0.0956,0.571315 -0.13798,0.867647 -0.0423,0.289277 -0.0636,0.589243 -0.0636,0.899687 0,0.324554 0.0778,0.571707 0.23306,0.74104 0.15522,0.169333 0.3953,0.253731 0.71986,0.253731 0.19755,0 0.37014,-0.04902 0.51831,-0.147794 0.15522,-0.09878 0.28587,-0.222354 0.39171,-0.37052 0.10583,-0.155222 0.19023,-0.31746 0.25373,-0.486792 0.0705,-0.176389 0.12009,-0.338626 0.14831,-0.486792 l -0.29611,-0.06356 c -0.10583,0.373943 -0.2332,0.638528 -0.38137,0.79375 -0.14111,0.155221 -0.27124,0.232544 -0.39119,0.232544 -0.11289,0 -0.1978,-0.03866 -0.25425,-0.116272 -0.0494,-0.07761 -0.0739,-0.187035 -0.0739,-0.328146 0,-0.296332 0.0174,-0.599578 0.0527,-0.910022 0.0423,-0.317499 0.0919,-0.631618 0.14831,-0.942061 0.0564,-0.310444 0.10218,-0.599537 0.13746,-0.867647 0.0423,-0.275166 0.0636,-0.518522 0.0636,-0.730188 0,-0.33161 -0.074,-0.596195 -0.22221,-0.79375 -0.14817,-0.204611 -0.37029,-0.306958 -0.66663,-0.306958 z m 5.50303,0 c -0.51506,0 -0.96639,0.09855 -1.35444,0.296106 -0.38806,0.190499 -0.71253,0.458881 -0.97359,0.804602 -0.254,0.338665 -0.44454,0.730106 -0.57154,1.174605 -0.127,0.444499 -0.19068,0.913779 -0.19068,1.407666 0,0.66322 0.12685,1.13578 0.38085,1.418001 0.26106,0.282222 0.58225,0.42323 0.96325,0.42323 0.14817,0 0.30712,-0.02831 0.47646,-0.08475 0.16933,-0.04939 0.34192,-0.155016 0.51831,-0.317293 0.18345,-0.162278 0.36363,-0.398558 0.54002,-0.709001 0.18344,-0.317499 0.35983,-0.737245 0.52917,-1.259355 h 0.0315 c -0.0494,0.261055 -0.0951,0.511488 -0.13746,0.751376 -0.0353,0.239888 -0.0527,0.462015 -0.0527,0.666626 0,0.282221 0.0599,0.511425 0.17983,0.687813 0.11995,0.176388 0.32085,0.264583 0.60307,0.264583 0.21166,0 0.39841,-0.05281 0.56069,-0.158646 0.16227,-0.105833 0.3,-0.239766 0.41289,-0.402043 0.11289,-0.162277 0.20109,-0.324515 0.26459,-0.486792 0.0705,-0.169333 0.11629,-0.317418 0.13746,-0.444417 l -0.29611,-0.06356 c -0.10583,0.373943 -0.23269,0.638528 -0.38086,0.79375 -0.14111,0.155221 -0.27176,0.232544 -0.3917,0.232544 -0.15523,0 -0.24342,-0.07025 -0.26459,-0.211357 -0.0212,-0.141111 -0.0315,-0.282636 -0.0315,-0.423747 0,-0.169333 0.0136,-0.401816 0.0419,-0.698148 0.0282,-0.303388 0.0636,-0.642016 0.10594,-1.015959 0.0494,-0.380999 0.0989,-0.780033 0.14831,-1.196309 l 0.1695,-1.26969 c -0.22578,-0.05645 -0.46586,-0.0989 -0.71986,-0.127124 -0.254,-0.03528 -0.487,-0.05271 -0.69866,-0.05271 z m -21.98109,0.359668 c 0.254,0 0.44075,0.07784 0.56069,0.23306 0.127,0.155222 0.19069,0.345765 0.19069,0.571542 0,0.26811 -0.10943,0.50439 -0.32815,0.709 -0.21872,0.197555 -0.49746,0.359793 -0.83612,0.486792 -0.33867,0.127 -0.69525,0.215195 -1.06919,0.264584 0.0282,-0.380999 0.0952,-0.744652 0.20102,-1.090373 0.11289,-0.345721 0.27185,-0.627739 0.47646,-0.84646 0.21166,-0.218722 0.48005,-0.328145 0.8046,-0.328145 z m 8.04292,0 c 0.254,0 0.44126,0.07784 0.56121,0.23306 0.127,0.155222 0.19017,0.345765 0.19017,0.571542 0,0.26811 -0.10943,0.50439 -0.32815,0.709 -0.21872,0.197555 -0.49694,0.359793 -0.83561,0.486792 -0.33866,0.127 -0.69524,0.215195 -1.06918,0.264584 0.0282,-0.380999 0.0952,-0.744652 0.20102,-1.090373 0.11289,-0.345721 0.27184,-0.627739 0.47645,-0.84646 0.21167,-0.218722 0.47954,-0.328145 0.80409,-0.328145 z m -21.90719,0.02119 c 0.16228,0 0.31364,0.01036 0.45475,0.03152 0.14111,0.02117 0.26469,0.05327 0.37052,0.0956 0,0.380999 -0.0387,0.779516 -0.11627,1.195793 -0.0776,0.416276 -0.18324,0.825666 -0.31729,1.227832 -0.13406,0.39511 -0.28594,0.754966 -0.45527,1.07952 -0.16934,0.317499 -0.3528,0.571212 -0.55036,0.761711 -0.1905,0.190499 -0.38104,0.285771 -0.57154,0.285771 -0.26105,0 -0.44072,-0.144806 -0.5395,-0.434082 -0.0988,-0.296333 -0.14831,-0.669825 -0.14831,-1.121379 0,-0.388054 0.0354,-0.76586 0.10594,-1.132747 0.0776,-0.373944 0.19359,-0.708775 0.34881,-1.005107 0.15522,-0.303388 0.34956,-0.543464 0.5824,-0.719853 0.23988,-0.176388 0.51862,-0.264583 0.83612,-0.264583 z m 35.51721,0 c 0.16228,0 0.31416,0.01036 0.45527,0.03152 0.14111,0.02117 0.26469,0.05327 0.37052,0.0956 0,0.380999 -0.0387,0.779516 -0.11627,1.195793 -0.0776,0.416276 -0.18376,0.825666 -0.31781,1.227832 -0.13406,0.39511 -0.28542,0.754966 -0.45475,1.07952 -0.16934,0.317499 -0.3528,0.571212 -0.55036,0.761711 -0.1905,0.190499 -0.38104,0.285771 -0.57154,0.285771 -0.26105,0 -0.44124,-0.144806 -0.54002,-0.434082 -0.0988,-0.296333 -0.14831,-0.669825 -0.14831,-1.121379 0,-0.388054 0.0354,-0.76586 0.10594,-1.132747 0.0776,-0.373944 0.19411,-0.708775 0.34933,-1.005107 0.15522,-0.303388 0.34956,-0.543464 0.58239,-0.719853 0.23989,-0.176388 0.51811,-0.264583 0.83561,-0.264583 z m -40.79854,0.116272 c 0.19755,0 0.34943,0.07784 0.45527,0.233061 0.10583,0.155221 0.17987,0.366993 0.22221,0.635103 0.0423,0.261055 0.0636,0.553428 0.0636,0.877983 0,0.253999 -0.0245,0.518584 -0.0739,0.79375 -0.0423,0.26811 -0.11309,0.529415 -0.21187,0.783414 -0.0988,0.253999 -0.22943,0.483203 -0.39171,0.687814 -0.15522,0.197555 -0.34576,0.356512 -0.57154,0.476456 -0.22578,0.119944 -0.48657,0.179834 -0.7829,0.179834 -0.11289,0 -0.22231,-0.01036 -0.32814,-0.03152 -0.0988,-0.02822 -0.20493,-0.06032 -0.31781,-0.0956 0.0141,-0.183444 0.0283,-0.356037 0.0424,-0.518314 0.0212,-0.169333 0.0462,-0.331571 0.0744,-0.486792 0.0635,-0.430388 0.15878,-0.853931 0.28578,-1.270207 0.12699,-0.416276 0.27128,-0.793565 0.43356,-1.132231 0.16228,-0.345721 0.33867,-0.621179 0.52917,-0.825789 0.1905,-0.204611 0.38104,-0.306958 0.57154,-0.306958 z M 55.662793,28.783097 48.783626,47.656881 c -0.258704,0.705556 -0.529098,1.364108 -0.81132,1.97559 -0.258704,0.611482 -0.587722,1.105267 -0.987537,1.481563 -0.399815,0.376297 -0.928981,0.564824 -1.5875,0.564824 v 2.433959 h 7.54941 v -2.822049 c -0.235185,0 -0.623343,0.01162 -1.16427,0.03514 -0.517407,0 -0.96419,0.02324 -1.340486,0.07028 0.188148,-0.399815 0.38778,-0.8936 0.599446,-1.481563 l 0.529167,-1.375627 0.564823,-1.658296 7.65483,-0.141077 0.7059,1.94045 c 0.235186,0.587964 0.364572,1.117129 0.38809,1.5875 0.02352,0.470371 -0.09425,0.846391 -0.35295,1.128613 -0.235185,0.258704 -0.681967,0.38809 -1.340486,0.38809 v 2.32854 h 9.48986 v -2.716631 c -0.235186,0 -0.54096,0.01214 -0.917257,0.03566 -0.352778,0 -0.729315,0.02324 -1.12913,0.07028 -0.04704,-0.540926 -0.188045,-1.164097 -0.42323,-1.869653 -0.235185,-0.729075 -0.423195,-1.269862 -0.564307,-1.62264 l -7.51427,-19.226737 z m 56.867847,0 -6.87917,18.873784 c -0.2587,0.705556 -0.5291,1.364108 -0.81132,1.97559 -0.2587,0.611482 -0.58772,1.105267 -0.98753,1.481563 -0.39982,0.376297 -0.92899,0.564824 -1.5875,0.564824 v 2.433959 h 7.54941 v -2.822049 c -0.23519,0 -0.62335,0.01162 -1.16427,0.03514 -0.51741,0 -0.9642,0.02324 -1.34049,0.07028 0.18815,-0.399815 0.38778,-0.8936 0.59945,-1.481563 l 0.52916,-1.375627 0.56483,-1.658296 7.65483,-0.141077 0.7059,1.94045 c 0.23518,0.587964 0.36457,1.117129 0.38809,1.5875 0.0235,0.470371 -0.0943,0.846391 -0.35295,1.128613 -0.23519,0.258704 -0.68197,0.38809 -1.34049,0.38809 v 2.32854 h 9.48986 v -2.716631 c -0.23519,0 -0.54096,0.01214 -0.91726,0.03566 -0.35278,0 -0.72931,0.02324 -1.12913,0.07028 -0.047,-0.540926 -0.18804,-1.164097 -0.42323,-1.869653 -0.23518,-0.729075 -0.42319,-1.269862 -0.5643,-1.62264 l -7.51427,-19.226737 z m -20.848857,0.0708 c -2.046113,0 -3.84538,0.388159 -5.397604,1.16427 -1.552223,0.752593 -2.846084,1.775544 -3.8809,3.069063 -1.011297,1.270001 -1.775475,2.692732 -2.292883,4.268474 -0.517408,1.575742 -0.77618,3.163239 -0.77618,4.7625 0,1.76389 0.282532,3.410528 0.846977,4.939233 0.587963,1.505186 1.410766,2.833912 2.4691,3.98632 1.081852,1.12889 2.363575,2.022455 3.845243,2.680973 1.481668,0.635001 3.128306,0.952397 4.939233,0.952397 0.96426,0 2.045835,-0.141007 3.24528,-0.42323 1.222962,-0.282222 2.469822,-0.82301 3.739822,-1.62264 1.27,-0.823149 2.480959,-2.022488 3.633369,-3.59823 l -1.69343,-1.55236 c -0.987779,1.364075 -2.210879,2.434028 -3.669029,3.21014 -1.45815,0.752593 -2.927884,1.12913 -4.409552,1.12913 -1.575741,0 -2.916088,-0.447299 -4.02146,-1.341003 -1.105371,-0.893705 -1.951933,-2.116287 -2.539896,-3.66851 -0.564445,-1.575742 -0.846977,-3.37501 -0.846977,-5.397604 0,-1.27 0.141008,-2.504721 0.42323,-3.704166 0.305741,-1.199445 0.752523,-2.269399 1.340487,-3.21014 0.611482,-0.940742 1.376177,-1.693299 2.2934,-2.257743 0.917223,-0.564445 1.987176,-0.846977 3.21014,-0.846977 1.646297,0.02352 2.963401,0.529441 3.951178,1.51722 1.0113,0.987778 1.66985,2.457511 1.97559,4.40955 h 2.292889 v -8.219657 h -2.716119 l 0.14108,1.481564 c -0.96426,-0.564445 -1.99935,-0.987985 -3.104722,-1.270207 -1.081852,-0.305741 -2.081043,-0.45837 -2.998266,-0.45837 z m 45.790487,0.494027 c -1.66982,0.02352 -3.3397,0.03514 -5.00951,0.03514 -1.66982,0 -3.3397,0.01162 -5.00952,0.03514 v 2.71663 c 0.25871,-0.02352 0.67011,-0.03514 1.23455,-0.03514 0.56445,-0.02352 1.03499,-0.04728 1.41129,-0.0708 -0.0235,0.305741 -0.0589,0.752523 -0.10594,1.340487 -0.0235,0.587963 -0.0351,1.199513 -0.0351,1.834513 v 13.51132 c 0,0.940741 -0.10614,1.623053 -0.31781,2.046387 -0.18815,0.423333 -0.47017,0.693727 -0.84646,0.81132 -0.35278,0.117592 -0.79956,0.187838 -1.34049,0.211356 v 2.32854 h 10.4774 v -2.71663 c -0.16463,0 -0.44665,0.01214 -0.84646,0.03566 -0.3763,0 -0.76446,0.01162 -1.16427,0.03514 -0.39982,0 -0.72883,0.01162 -0.98754,0.03514 0.047,-0.305741 0.0819,-0.752523 0.10542,-1.340487 0.0235,-0.587963 0.0357,-1.211134 0.0357,-1.869653 v -3.774963 h 0.8816 0.95239 c 0.23519,0.235185 0.4591,0.517717 0.67077,0.846976 0.23518,0.32926 0.50557,0.72904 0.81132,1.19941 l 2.61017,4.233334 c 0.47037,0.752593 0.90553,1.422766 1.30535,2.01073 0.42333,0.564445 0.84687,0.999606 1.27021,1.305346 h 5.82083 v -2.32854 c -0.51741,-0.02352 -0.97633,-0.140766 -1.37615,-0.352433 -0.39981,-0.235185 -0.79959,-0.587962 -1.1994,-1.058333 -0.39982,-0.470371 -0.85822,-1.10568 -1.37563,-1.90531 l -1.6583,-2.4691 c -0.30574,-0.470371 -0.68176,-0.91767 -1.12861,-1.341004 -0.42334,-0.423333 -0.8585,-0.728591 -1.30535,-0.916739 1.3876,-0.399816 2.52831,-0.94112 3.42202,-1.623157 0.91722,-0.682038 1.59901,-1.469976 2.04587,-2.36368 0.47037,-0.893705 0.71752,-1.834272 0.74104,-2.82205 0.047,-1.881483 -0.34113,-3.374976 -1.16427,-4.480347 -0.82315,-1.105371 -1.99873,-1.904931 -3.52744,-2.39882 -1.5287,-0.493889 -3.32797,-0.728902 -5.3976,-0.705383 z m -112.218991,0.07028 v 2.71663 c 0.258704,-0.02352 0.670622,-0.03514 1.235067,-0.03514 0.564445,-0.02352 1.03447,-0.04728 1.410767,-0.0708 -0.02352,0.305741 -0.05838,0.752523 -0.10542,1.340487 -0.02352,0.587963 -0.03566,1.199513 -0.03566,1.834513 v 13.51132 c 0,0.940741 -0.105626,1.623053 -0.317293,2.046387 -0.188149,0.423333 -0.47068,0.693727 -0.846977,0.81132 -0.352778,0.117592 -0.79956,0.187838 -1.340487,0.211356 v 2.32854 h 18.802987 l 0.211873,-8.466666 h -2.36368 c 0,1.92852 -0.399779,3.37501 -1.19941,4.33927 -0.776111,0.96426 -1.857686,1.446423 -3.24528,1.446423 h -4.72736 c 0.04704,-0.305741 0.08242,-0.740902 0.105937,-1.305347 0.02352,-0.564444 0.03514,-1.164372 0.03514,-1.799373 v -13.51132 c 0,-0.96426 0.09401,-1.646055 0.282153,-2.04587 0.211667,-0.423333 0.505821,-0.694244 0.882117,-0.811837 0.376297,-0.117592 0.823079,-0.187838 1.340487,-0.211356 v -2.32854 z m 126.506491,0 v 2.71663 c 0.2587,-0.02352 0.6701,-0.03514 1.23455,-0.03514 0.56444,-0.02352 1.03499,-0.04728 1.41128,-0.0708 -0.0235,0.305741 -0.0473,0.752523 -0.0708,1.340487 -0.0235,0.587963 -0.0468,1.199513 -0.0703,1.834513 l -0.21188,13.51132 c 0,0.940741 -0.10562,1.623053 -0.31729,2.046387 -0.18815,0.423333 -0.47068,0.693727 -0.84698,0.81132 -0.35278,0.117592 -0.79956,0.187838 -1.34048,0.211356 v 2.32854 h 8.04343 v -2.71663 c -0.23518,0 -0.64658,0.01214 -1.23455,0.03566 -0.56444,0 -1.04661,0.02324 -1.44642,0.07028 0.047,-0.305741 0.0824,-0.752523 0.10594,-1.340487 0.047,-0.587963 0.0703,-1.199512 0.0703,-1.834513 v -1.5875 -1.5875 c 0.0235,-0.540926 0.0351,-1.081714 0.0351,-1.62264 v -1.5875 c 0.0235,-1.058334 0.0235,-2.163668 0,-3.316077 -0.0235,-1.175926 -0.0584,-2.422268 -0.10542,-3.739306 0.2587,1.128889 0.54071,2.222086 0.84646,3.28042 0.32925,1.058334 0.63503,1.999418 0.91725,2.822566 0.30574,0.799631 0.55238,1.422802 0.74053,1.869654 0.79963,1.92852 1.58756,3.857173 2.36368,5.785693 0.79963,1.92852 1.59918,3.868795 2.39882,5.820834 h 3.28093 l 6.87917,-18.379757 c 0.047,-0.16463 0.10618,-0.317776 0.17673,-0.458887 l 0.21136,-0.494027 c 0.0235,0.729075 0.0473,1.517013 0.0708,2.36368 0.047,0.823149 0.094,1.587844 0.14107,2.2934 0.047,0.682038 0.0703,1.164201 0.0703,1.446424 l 0.28216,7.478613 c 0.047,0.940741 -0.0348,1.623053 -0.2465,2.046387 -0.18815,0.423333 -0.4823,0.693727 -0.88212,0.81132 -0.37629,0.117592 -0.8347,0.187838 -1.37562,0.211356 v 2.32854 h 9.80715 v -2.716633 c -0.23519,0 -0.6471,0.01214 -1.23507,0.03566 -0.56444,0 -1.04661,0.02324 -1.44642,0.07028 0.047,-0.305741 0.094,-0.752523 0.14108,-1.340487 0.047,-0.587963 0.047,-1.199512 0,-1.834513 l -0.52917,-13.51132 c -0.0235,-0.96426 0.0589,-1.646055 0.24701,-2.04587 0.21167,-0.423333 0.51744,-0.694244 0.91726,-0.811837 0.39981,-0.117592 0.85873,-0.187838 1.37614,-0.211356 v -2.32854 h -8.14937 l -2.75177,7.267256 c -0.89371,2.422409 -1.79889,4.85647 -2.71611,7.302397 -0.28223,0.729075 -0.55262,1.481632 -0.81132,2.257743 -0.25871,0.776112 -0.54124,1.576188 -0.84698,2.399337 h -0.0351 c -0.11759,-0.399815 -0.29398,-0.928981 -0.52917,-1.5875 -0.23518,-0.682037 -0.48233,-1.37597 -0.74104,-2.081527 -0.2587,-0.729074 -0.49371,-1.364383 -0.70538,-1.90531 L 159.5562,29.418204 Z m 34.18396,0 v 2.71663 c 0.2587,-0.02352 0.67062,-0.03514 1.23507,-0.03514 0.56444,-0.02352 1.03447,-0.04728 1.41076,-0.0708 -0.0235,0.305741 -0.0589,0.752523 -0.10593,1.340487 -0.0235,0.587963 -0.0351,1.199513 -0.0351,1.834513 v 13.51132 c 0,0.940741 -0.10563,1.623053 -0.3173,2.046387 -0.18815,0.423333 -0.47068,0.693727 -0.84697,0.81132 -0.35278,0.117592 -0.79957,0.187838 -1.34049,0.211356 v 2.32854 h 18.62677 l 0.17622,-7.761283 h -2.29289 c 0,1.270001 -0.21177,2.28133 -0.6351,3.033923 -0.42334,0.729075 -0.96412,1.258241 -1.62264,1.5875 -0.65852,0.305741 -1.34032,0.458887 -2.04587,0.458887 h -4.72736 c 0.047,-0.305741 0.0824,-0.740902 0.10594,-1.305347 0.0235,-0.564444 0.0351,-1.164372 0.0351,-1.799373 v -5.785693 l 0.91725,-0.03514 c 0.635,-0.02352 1.21117,0.02348 1.72858,0.141076 0.54092,0.09407 0.96395,0.364468 1.26969,0.81132 0.30574,0.446853 0.45889,1.164545 0.45889,2.152324 h 2.32854 v -8.572604 h -2.71663 l 0.14107,3.069064 h -4.12739 v -5.291667 c 0,-0.917223 0.094,-1.587396 0.28215,-2.01073 0.18815,-0.446852 0.45854,-0.729384 0.81132,-0.846977 0.35278,-0.141111 0.77632,-0.211356 1.27021,-0.211356 l 1.26969,-0.03514 c 0.635,-0.02352 1.28193,0.08211 1.94045,0.317293 0.65851,0.211667 1.21144,0.646828 1.65829,1.305347 0.44685,0.658519 0.67025,1.634467 0.67025,2.927986 h 2.32802 l -0.21136,-6.844026 z m -48.50712,2.39882 c 0.35278,0 0.80008,0.047 1.34101,0.141076 0.54092,0.07056 1.07009,0.270704 1.5875,0.599964 0.54092,0.305741 0.9877,0.787904 1.34048,1.446423 0.35278,0.635001 0.52917,1.516944 0.52917,2.645833 0,1.199446 -0.18853,2.199154 -0.56483,2.998784 -0.35277,0.776111 -0.92894,1.363901 -1.72857,1.763716 -0.79963,0.376297 -1.85796,0.564307 -3.175,0.564307 -0.30574,0 -0.59938,-0.01162 -0.8816,-0.03514 -0.28222,-0.04704 -0.55262,-0.08242 -0.81132,-0.105937 v -7.232116 c 0,-0.823149 0.094,-1.434182 0.28215,-1.833997 0.18815,-0.399815 0.45854,-0.658587 0.81132,-0.77618 0.35278,-0.117593 0.7758,-0.176733 1.26969,-0.176733 z m -81.526804,3.175 h 0.03514 c 0.117593,0.658519 0.293981,1.423214 0.529167,2.2934 0.235185,0.846667 0.506095,1.693229 0.811836,2.539896 l 1.62264,4.40955 h -5.89163 l 1.5875,-4.585766 c 0.399815,-1.105371 0.693969,-2.058077 0.882117,-2.857707 z m 56.867844,0 h 0.0351 c 0.11759,0.658519 0.29398,1.423214 0.52917,2.2934 0.23518,0.846667 0.50558,1.693229 0.81132,2.539896 l 1.62316,4.40955 h -5.89163 l 1.5875,-4.585766 c 0.39981,-1.105371 0.69396,-2.058077 0.88211,-2.857707 z" />
  </g>
</svg>
