<?xml version="1.0" encoding="UTF-8" standalone="no"?>
<!-- Created with Inkscape (http://www.inkscape.org/) -->

<svg
   width="869.29132"
   height="869.29132"
   viewBox="0 0 230 230"
   version="1.1"
   id="svg1"
   xml:space="preserve"
   xmlns="http://www.w3.org/2000/svg"
   xmlns:svg="http://www.w3.org/2000/svg"><defs
     id="defs1" /><g
     id="layer1"><path
       style="fill:#000000;stroke-width:0.412788"
       d="m 111.40843,219.8931 c -1.49447,-0.1431 -3.9776,-0.78945 -5.12782,-1.33475 -2.61762,-1.24097 -4.23145,-2.35559 -6.659031,-4.5992 -1.967305,-1.81821 -2.75317,-2.46526 -4.054735,-3.33852 -1.127682,-0.75659 -3.99181,-2.8809 -5.510605,-4.08719 -0.450343,-0.35768 -1.408576,-1.11932 -2.129407,-1.69253 -1.738146,-1.38219 -4.2957,-3.57858 -5.822953,-5.00068 -1.488281,-1.38582 -2.384443,-2.44019 -3.737429,-4.39726 -1.109986,-1.60557 -1.478114,-2.06564 -2.840178,-3.54954 -0.496236,-0.54063 -1.494147,-1.66673 -2.217578,-2.50246 -1.37597,-1.58955 -3.15965,-3.38233 -4.013134,-4.03359 -0.275709,-0.21038 -0.932583,-0.63726 -1.459721,-0.94862 -0.527138,-0.31136 -1.148875,-0.73816 -1.381638,-0.94845 -0.928508,-0.83884 -1.44126,-2.5831 -1.576077,-5.36141 l -0.0758,-1.56226 -0.34237,0.074 c -0.188302,0.0407 -0.563534,0.18531 -0.833844,0.32138 -0.679387,0.342 -1.592102,0.59942 -2.125324,0.59942 -0.546874,0 -1.842908,-0.60158 -2.264855,-1.05128 -0.60707,-0.647 -0.617811,-0.73563 -0.654516,-5.40056 -0.01866,-2.3683 0.0097,-5.38725 0.06304,-6.70878 0.107993,-2.67703 0.01531,-3.96699 -0.431483,-6.00692 -0.479156,-2.18754 -0.589766,-3.03788 -0.589581,-4.53249 2.77e-4,-2.21182 0.330957,-4.00104 1.090008,-5.8977 0.585523,-1.46306 0.816386,-2.22877 1.481804,-4.91476 0.170643,-0.68881 0.373862,-1.24387 0.508869,-1.3899 0.208536,-0.22555 0.219574,-0.32868 0.15283,-1.42766 -0.04124,-0.67881 -0.187789,-1.63025 -0.343274,-2.22848 -0.16715,-0.64312 -0.306586,-1.58362 -0.363154,-2.44953 -0.107461,-1.64487 -0.403294,-2.52415 -1.373184,-4.0814 -1.296872,-2.08226 -1.932375,-3.48607 -2.082176,-4.59948 -0.165495,-1.23008 -1.542588,-3.42924 -3.089267,-4.93342 -2.15734,-2.09808 -3.625927,-3.4639 -3.724542,-3.4639 -0.05569,0 -0.782546,-0.63867 -1.615226,-1.41927 -0.832679,-0.78061 -1.540978,-1.41953 -1.573997,-1.41982 -0.179558,-0.002 -3.289282,-3.52846 -3.694202,-4.18973 -0.98634,-1.61077 -1.145515,-2.17893 -0.844147,-3.01309 0.211203,-0.58459 0.540339,-0.75552 1.814698,-0.94243 0.902502,-0.13237 1.328718,-0.25936 2.00962,-0.59875 0.475304,-0.23691 0.924405,-0.43075 0.998001,-0.43075 0.0736,0 0.37278,-0.16416 0.664848,-0.36479 0.292068,-0.20063 0.801345,-0.45866 1.131727,-0.57339 1.064914,-0.3698 3.487817,-0.21551 5.415445,0.34486 1.023937,0.29767 2.661689,1.12652 3.196505,1.61772 0.279206,0.25644 0.876254,0.75607 1.326774,1.11029 2.024134,1.59147 5.155512,4.42717 6.182574,5.5988 0.926832,1.05728 2.924692,4.22498 3.936979,6.24225 0.281183,0.56034 0.368013,0.66169 0.421081,0.49148 0.224734,-0.72082 0.900897,-2.31598 1.210686,-2.85617 0.200214,-0.34912 0.539748,-0.95867 0.754518,-1.35457 0.221568,-0.40841 0.790748,-1.14074 1.315719,-1.69285 0.508873,-0.53519 1.00603,-1.09594 1.104798,-1.24611 0.377589,-0.57411 1.25712,-1.51743 1.818994,-1.95092 0.645278,-0.49782 1.555578,-0.85555 2.442304,-0.95977 0.555472,-0.0653 0.574745,-0.0786 0.510016,-0.35335 -0.112551,-0.47765 -0.753652,-1.78672 -1.113763,-2.27421 -0.186758,-0.25282 -0.779686,-0.80686 -1.317615,-1.23119 -2.096107,-1.65345 -2.570032,-3.17312 -1.390083,-4.45737 0.732624,-0.79738 1.531863,-0.98935 2.417599,-0.58066 0.476039,0.21965 1.782128,1.5217 2.312758,2.30561 0.182973,0.27032 0.616148,1.0321 0.962609,1.69286 1.164969,2.2218 1.257331,2.35276 1.857817,2.63414 0.300349,0.14074 0.560566,0.21341 0.578258,0.16148 0.01771,-0.0519 -0.220829,-0.77591 -0.530057,-1.60884 -0.997501,-2.68685 -1.194975,-3.33488 -1.194975,-3.92138 0,-1.10092 0.388925,-1.71863 1.339583,-2.1276 0.661179,-0.28443 1.229645,-0.23444 2.189567,0.19255 1.129961,0.50261 1.690411,1.46911 1.880338,3.24262 0.07224,0.67455 0.725615,3.28448 0.854512,3.41338 0.07454,0.0745 0.530139,-0.73483 1.118139,-1.98635 0.282223,-0.60069 0.683131,-1.32687 0.890907,-1.61373 0.576937,-0.79654 1.675485,-1.67488 2.367681,-1.89307 0.565201,-0.17817 0.618896,-0.1777 1.109523,0.01 1.347757,0.51471 2.041149,1.90648 1.799598,3.61215 -0.122499,0.86498 -0.884295,2.51806 -1.680785,3.64725 -0.273195,0.3873 -0.474788,0.73968 -0.447982,0.78306 0.09115,0.14748 1.081933,0.66121 1.739537,0.90197 0.360418,0.13195 1.34767,0.6678 2.193897,1.19076 2.958396,1.82829 3.706257,2.70411 3.695377,4.32769 -0.01,1.49575 -0.802338,3.8121 -1.54051,4.5037 -0.169259,0.15858 -0.673859,0.44725 -1.121337,0.6415 -0.809688,0.35148 -0.819661,0.35281 -2.075121,0.27801 -0.693835,-0.0414 -1.974162,-0.18258 -2.845165,-0.31385 -1.974446,-0.29759 -3.263438,-0.30503 -4.467626,-0.0258 -0.82773,0.19193 -0.964962,0.2618 -1.394467,0.70991 -1.199982,1.25196 -2.329163,4.35014 -2.329163,6.39061 0,1.20287 0.185403,1.56169 1.02567,1.98499 1.239172,0.62426 3.169091,1.95874 3.746655,2.59068 0.30929,0.33841 0.885285,1.07849 1.279993,1.64461 0.590064,0.84633 0.790588,1.05309 1.127947,1.16304 0.596222,0.19431 1.238999,0.66612 1.884768,1.38346 0.965139,1.07211 2.785554,5.02218 3.738148,8.11132 l 0.218914,0.70991 1.161432,-1.17775 c 1.410186,-1.43002 2.274902,-2.09211 3.565742,-2.73018 1.38432,-0.68428 3.96371,-1.4917 5.5139,-1.72599 2.62586,-0.39687 4.97908,-2.17188 5.56228,-4.19559 0.28712,-0.99632 0.44808,-3.67731 0.55079,-9.1742 0.13947,-7.46388 0.12221,-7.21636 0.78054,-11.19078 0.37856,-2.28541 1.25183,-6.26987 1.71371,-7.8191 0.1801,-0.60408 0.3635,-1.39044 0.40756,-1.74747 0.0441,-0.35702 0.18913,-1.01774 0.32238,-1.46826 0.13324,-0.45052 0.39522,-1.60549 0.58218,-2.56659 0.18694,-0.96111 0.44289,-2.26352 0.56876,-2.894251 0.12588,-0.630726 0.32514,-1.662825 0.44281,-2.293552 0.11766,-0.630726 0.2861,-1.515382 0.3743,-1.965901 0.0882,-0.450519 0.31062,-2.146109 0.49428,-3.767978 0.33067,-2.920216 0.33271,-2.973246 0.21018,-5.460837 -0.0681,-1.381592 -0.21783,-3.06963 -0.33282,-3.751195 -0.11499,-0.681565 -0.18315,-1.281165 -0.15146,-1.332445 0.0317,-0.05128 -0.13694,-1.140078 -0.37474,-2.419552 -0.45848,-2.466803 -0.52433,-2.877654 -0.88925,-5.548209 -0.12722,-0.931073 -0.32436,-2.146786 -0.43808,-2.701584 -0.22049,-1.075677 -0.76022,-2.557785 -1.06741,-2.931151 -0.12256,-0.148963 -0.59701,-0.340517 -1.38581,-0.559517 -0.6597,-0.183154 -1.83415,-0.520484 -2.60988,-0.749619 l -1.41043,-0.416618 -0.17322,0.256898 c -0.3024,0.448507 -2.22677,2.403601 -2.79441,2.839027 -1.44065,1.105104 -4.24212,2.286866 -6.33457,2.672152 -0.48056,0.08848 -1.46351,0.288988 -2.18434,0.445562 -1.199185,0.26048 -1.547355,0.286425 -4.095626,0.305203 l -2.785029,0.02052 -2.511987,-0.519174 c -3.601321,-0.744618 -5.770941,-1.368905 -6.934037,-1.995503 -0.150845,-0.08127 -0.986905,-0.527076 -1.857908,-0.990688 -3.051545,-1.624259 -3.732257,-2.081198 -6.77144,-4.545458 -1.618136,-1.312034 -4.120038,-3.820096 -5.068302,-5.080778 -0.710313,-0.944331 -1.380577,-2.035514 -2.969839,-4.834855 -1.892697,-3.333818 -2.312866,-4.334193 -3.820755,-9.096813 -1.18044,-3.72839 -1.401236,-4.589242 -1.574529,-6.138922 -0.06718,-0.600692 -0.216895,-1.829384 -0.332711,-2.730421 -0.115816,-0.901037 -0.284505,-2.400039 -0.374869,-3.33111 -0.09036,-0.931072 -0.212701,-2.135184 -0.271862,-2.675808 -0.05917,-0.540624 -0.135918,-2.211639 -0.17056,-3.713368 -0.06082,-2.636546 -0.208874,-5.050392 -0.549304,-8.955777 -0.345908,-3.968264 -0.452238,-4.648439 -0.956339,-6.117543 -0.378245,-1.102333 -0.280807,-1.283426 0.901846,-1.676165 2.097561,-0.6965586 8.413419,0.300249 12.12003,1.912858 4.96473,2.159965 9.008885,4.843271 11.591446,7.690949 1.921081,2.118299 2.790685,3.433531 4.605514,6.965632 1.541932,3.000962 3.278336,6.062599 4.347406,7.665367 1.142716,1.713172 3.814291,5.282663 4.66198,6.228872 0.35349,0.394571 1.032584,1.205505 1.509098,1.802074 0.476514,0.596573 1.262193,1.477854 1.745952,1.95841 1.171365,1.163599 4.154135,3.778394 5.230735,4.58544 1.07122,0.803004 2.96811,2.558582 3.8143,3.530144 0.74725,0.857966 2.1735,3.65003 2.63289,5.154249 0.15594,0.510589 0.41218,1.187792 0.56943,1.504896 0.27457,0.553705 0.28347,0.629456 0.22457,1.911294 -0.0337,0.734107 -0.13333,1.589655 -0.22135,1.901218 l -0.16002,0.566481 1.3262,0.560822 c 1.35407,0.572611 2.85673,1.020279 3.84409,1.145222 l 0.55199,0.06985 0.704,-0.841963 c 0.3872,-0.463078 1.8572,-1.960494 3.26665,-3.327591 l 2.56265,-2.485626 -0.17775,-0.584214 c -0.0978,-0.321318 -0.33545,-1.321429 -0.52817,-2.222466 -0.33125,-1.548697 -0.34722,-1.727805 -0.29205,-3.276502 0.0958,-2.690043 0.50393,-4.432886 1.64951,-7.044483 0.64041,-1.459951 1.29128,-2.550751 2.57835,-4.321053 2.83348,-3.897352 6.05173,-7.257621 9.88401,-10.320207 2.3458,-1.874655 3.39553,-2.586793 6.28778,-4.265641 3.76236,-2.183916 7.79986,-4.106351 10.75004,-5.118568 0.84096,-0.288539 2.1188,-0.756995 2.83963,-1.041009 2.70718,-1.06666 6.16953,-2.272702 7.69978,-2.682064 0.87101,-0.23301 2.29628,-0.624663 3.16729,-0.870346 0.871,-0.245683 2.20861,-0.592062 2.97245,-0.76973 0.76386,-0.177668 2.82805,-0.807796 4.58711,-1.400279 1.75906,-0.592482 3.56689,-1.199441 4.01741,-1.3488 0.45052,-0.149355 1.11401,-0.394039 1.47443,-0.543741 0.36041,-0.149701 1.29924,-0.523575 2.08628,-0.830834 0.78703,-0.307258 1.91235,-0.808965 2.5007,-1.114902 1.36658,-0.710622 1.73799,-0.662013 2.12813,0.278512 0.25278,0.609382 0.23415,5.059526 -0.0279,6.66222 -0.0982,0.600693 -0.28024,1.9031 -0.4045,2.894245 -0.12427,0.99114 -0.30395,2.195254 -0.3993,2.675809 -0.31228,1.573815 -1.83544,5.935549 -2.8153,8.061922 -1.30525,2.832498 -5.10484,9.031612 -7.34244,11.979349 -2.95284,3.889972 -3.36487,4.385672 -4.86027,5.847221 -3.27738,3.203212 -4.74084,4.44555 -7.52097,6.384596 -4.10641,2.864078 -7.20899,4.49875 -11.30394,5.955773 -2.04985,0.729358 -3.67728,1.159912 -5.78572,1.530682 -1.37006,0.240924 -1.82939,0.268395 -4.48765,0.268395 -3.05675,0 -5.64346,-0.177643 -7.36513,-0.505801 -0.51059,-0.09732 -1.27237,-0.187364 -1.69286,-0.200095 -1.47856,-0.04477 -6.85753,-1.312336 -8.02608,-1.89137 -0.32964,-0.16334 -0.62942,-0.310899 -0.66619,-0.327914 -0.11665,-0.05398 -4.13124,4.415315 -4.49157,5.000297 -0.0925,0.150172 -0.22836,0.662479 -0.30191,1.13846 -0.36357,2.352733 0.0452,6.191044 1.03608,9.728608 0.15143,0.540622 0.34616,1.425278 0.43272,1.965901 0.0866,0.540623 0.27987,1.697413 0.42956,2.570645 0.58457,3.410013 0.65878,4.315067 0.66235,8.077988 0.002,2.312689 -0.0464,3.930115 -0.13945,4.641711 -0.38687,2.958568 -0.78406,5.037663 -1.58574,8.300477 -0.26566,1.08124 -0.66666,2.75226 -0.89112,3.71337 -0.22445,0.96111 -0.55092,2.28038 -0.72547,2.93171 -0.17456,0.65134 -0.36224,1.48684 -0.41707,1.85669 -0.23008,1.55196 -0.57878,3.44288 -0.83441,4.52472 -1.08258,4.58169 -1.29716,7.56473 -0.86989,12.09336 0.1594,1.68945 0.19019,2.91751 0.16567,6.60761 -0.0686,10.3227 -0.0654,10.56641 0.15519,11.73737 0.32406,1.72038 0.76563,2.10215 2.27438,1.96638 1.17658,-0.10588 4.30904,-0.57889 5.00768,-0.75618 1.17271,-0.29758 2.80382,-1.14239 5.83246,-3.02087 1.25467,-0.77818 1.6608,-0.87779 3.82655,-0.93848 1.72526,-0.0483 3.58331,0.10547 4.21854,0.34923 0.1296,0.0497 0.37647,-0.18875 0.9256,-0.89414 0.41187,-0.52908 1.70831,-1.94491 2.88097,-3.14629 2.44428,-2.50415 2.94413,-3.076 3.65855,-4.1856 0.63575,-0.98742 1.04455,-1.87909 1.52501,-3.32636 0.71591,-2.15651 1.09964,-2.90729 1.84393,-3.6077 0.70836,-0.66661 1.42526,-1.05294 3.96012,-2.13409 1.77881,-0.75868 2.08597,-0.80355 4.63547,-0.67719 1.6243,0.0805 2.38506,0.16926 3.21912,0.37556 2.11946,0.52425 4.10596,1.30272 4.98762,1.95455 0.16858,0.12464 0.53567,0.51233 0.81576,0.86153 l 0.50924,0.63492 0.26588,-0.35404 c 0.14623,-0.19472 0.61073,-1.04211 1.03221,-1.88308 0.99123,-1.97776 1.30247,-2.31174 2.37996,-2.55383 1.16489,-0.26174 2.29642,0.74917 2.29613,2.05135 -9e-5,0.43797 -0.47749,1.528 -0.88972,2.03152 -0.29432,0.35949 -0.96404,1.3746 -1.18527,1.79656 -0.13173,0.25124 -0.10775,0.29592 0.39402,0.73414 0.29386,0.25664 1.09948,0.77024 1.79027,1.14135 1.8334,0.9849 2.23126,1.25313 2.82911,1.90727 0.68998,0.75495 0.92232,1.42206 0.86499,2.48367 -0.053,0.98073 -0.41823,1.77745 -1.39275,3.0378 -0.28996,0.375 -0.15892,0.4849 0.70211,0.58887 1.03901,0.12546 1.73862,0.44077 2.46014,1.10878 0.51046,0.4726 0.686,0.72175 0.81535,1.15734 0.35614,1.19926 0.17207,2.05605 -0.65791,3.06227 l -0.57002,0.69106 0.50525,0.31702 c 1.30668,0.81988 1.96439,1.77112 1.63767,2.36855 -0.0822,0.1503 -0.25317,0.46402 -0.37994,0.69715 -0.12677,0.23312 -0.25753,0.69418 -0.29059,1.02456 -0.16267,1.62567 -1.17646,2.97021 -2.94112,3.90064 l -0.96108,0.50673 -8.3e-4,0.66325 c -0.002,1.35415 -0.89933,4.37142 -1.64689,5.5378 -0.40472,0.63147 -1.30475,1.48993 -2.07702,1.9811 -0.81193,0.5164 -1.80236,0.82899 -4.05365,1.27939 l -0.62485,0.12501 0.26394,0.40247 c 1.14713,1.74923 1.2337,5.5919 0.19854,8.81217 -0.48402,1.50572 -0.85343,2.24363 -1.53487,3.066 -0.29504,0.35605 -0.84817,1.11427 -1.22918,1.68492 -0.38102,0.57066 -0.90768,1.29415 -1.17036,1.60776 -0.26268,0.31361 -0.83467,1.09997 -1.27109,1.74747 -1.3889,2.06066 -3.61006,4.9637 -4.66108,6.09202 -2.95092,3.16793 -6.11715,6.29216 -7.14853,7.05367 -1.28393,0.948 -3.31849,2.62884 -4.34966,3.59345 -0.67945,0.63559 -1.80063,1.52707 -3.78698,3.01115 -0.45052,0.3366 -1.587,1.18555 -2.5255,1.88656 -3.18629,2.37997 -5.12679,3.95023 -7.02378,5.68368 -0.48451,0.44273 -1.15124,1.03075 -1.48161,1.30671 -0.33039,0.27595 -1.19047,1.07021 -1.9113,1.76502 -0.72083,0.6948 -1.5563,1.45834 -1.85661,1.69675 -0.3003,0.23841 -0.94279,0.7775 -1.42777,1.19798 -1.83687,1.59263 -2.42179,2.03268 -3.32323,2.5002 -1.51823,0.78741 -1.66169,0.80822 -2.68338,0.38931 -0.79132,-0.32444 -0.97747,-0.46649 -2.15431,-1.64396 -1.4562,-1.45697 -1.37971,-1.45202 -1.59692,-0.10327 -0.11866,0.7368 -0.15244,0.81024 -0.84085,1.82797 -0.72604,1.07334 -1.41452,1.74401 -1.99251,1.94095 -0.5373,0.18308 -1.62822,0.19782 -3.23735,0.0437 z m 2.97973,-1.68503 c 0.3248,-0.2275 1.44355,-1.93681 1.44355,-2.20557 0,-0.3615 0.67842,-2.47028 0.87766,-2.7281 0.11893,-0.1539 0.21734,-0.55701 0.26662,-1.09217 0.043,-0.46652 0.19326,-1.51171 0.334,-2.32265 0.50449,-2.90688 0.71996,-4.79572 0.87214,-7.64517 0.085,-1.59184 0.20476,-3.43487 0.26611,-4.09563 0.28415,-3.06067 0.34142,-4.10972 0.273,-5.00051 l -0.0737,-0.95949 -0.68307,-0.80377 c -1.18767,-1.39751 -2.05734,-2.96406 -2.76651,-4.98336 -0.45447,-1.29404 -1.27796,-3.27474 -1.76827,-4.25312 -0.22578,-0.45053 -0.6425,-1.35975 -0.92606,-2.02051 -0.28355,-0.66077 -0.76323,-1.75599 -1.06596,-2.43385 l -0.5504,-1.23246 -0.34542,0.57716 c -2.16816,3.62281 -2.35079,4.92257 -1.3165,9.36911 0.26964,1.15922 0.28816,1.39064 0.2404,3.00346 -0.0584,1.97293 -0.25447,2.85855 -0.90805,4.10233 -0.52985,1.0083 -0.91258,1.44042 -1.2758,1.44042 -0.63955,0 -0.96192,-0.60953 -0.64392,-1.21752 0.11317,-0.21638 0.36191,-0.69584 0.55275,-1.06546 0.73852,-1.43035 0.88781,-3.91028 0.37649,-6.25408 l -0.29584,-1.35606 -0.19398,0.45676 c -0.36185,0.85201 -0.53323,1.45471 -0.63646,2.23833 -0.0566,0.42985 -0.15478,1.17472 -0.2181,1.65528 -0.22647,1.71862 -0.74988,2.81233 -1.34588,2.81233 -0.672,0 -0.91521,-0.54094 -0.6239,-1.38765 0.11441,-0.33254 0.26154,-1.01029 0.32695,-1.50612 0.0654,-0.49583 0.16686,-1.26274 0.22544,-1.70423 0.1374,-1.03564 0.46695,-2.00384 1.36261,-4.00326 0.3988,-0.89026 0.76856,-1.88574 0.82169,-2.21219 0.0531,-0.32644 0.12763,-0.69129 0.16555,-0.81077 0.0586,-0.18454 0.0386,-0.20087 -0.13251,-0.10849 -0.47549,0.25667 -2.0745,1.87495 -2.61552,2.64706 -0.32344,0.46158 -0.66225,0.9008 -0.7529,0.97603 -0.24904,0.20668 -0.70398,0.16429 -0.9575,-0.0892 -0.71179,-0.71179 0.34829,-2.18672 3.52376,-4.90279 1.14314,-0.97775 1.67478,-1.51268 1.91129,-1.92308 0.40399,-0.70101 1.13296,-1.6784 1.51564,-2.03214 0.36116,-0.33385 0.35864,-0.46641 -0.0207,-1.08835 -0.16892,-0.27696 -0.42369,-0.7493 -0.56615,-1.04964 -0.14247,-0.30035 -0.52617,-1.03756 -0.85267,-1.63826 -0.3265,-0.60069 -1.22021,-2.32085 -1.98603,-3.82258 -0.76582,-1.50173 -1.55347,-3.0253 -1.75034,-3.38572 -0.19687,-0.36041 -0.67777,-1.29422 -1.06868,-2.07512 -1.27725,-2.5515 -3.27126,-5.8606 -4.499898,-7.4677 -0.330383,-0.43215 -0.600693,-0.8303 -0.600693,-0.88478 0,-0.13139 -0.820539,-1.20398 -0.921053,-1.20398 -0.04314,0 -0.197581,0.1292 -0.343208,0.28712 -0.392891,0.42604 -0.875292,0.58659 -1.762996,0.58676 -0.74883,1.4e-4 -2.483591,0.24427 -2.704073,0.38053 -0.2989,0.18473 -2.226383,0.49866 -2.945286,0.47969 l -0.81301,-0.0215 -0.17579,0.48158 c -0.585366,1.60361 -2.196208,4.38892 -3.258043,5.63348 -0.794988,0.93179 -2.184947,2.05851 -3.022188,2.44982 -0.955277,0.44648 -2.499454,0.86257 -3.20114,0.86257 -0.335559,0 -1.00584,-0.0558 -1.489511,-0.12403 -0.815272,-0.11499 -0.974732,-0.10241 -2.186673,0.17238 -1.847411,0.41887 -2.246968,0.6122 -4.011681,1.94113 -0.676361,0.50934 -0.979661,0.84174 -1.548805,1.69741 -0.677401,1.01843 -0.8726,1.39698 -2.125596,4.12211 -1.145755,2.49189 -1.390806,3.71552 -1.279531,6.38918 0.0829,1.99187 0.301087,3.23822 0.69466,3.96798 0.237923,0.44116 0.437609,0.61779 1.218029,1.07742 0.513401,0.30237 1.170716,0.72311 1.460703,0.93498 1.028894,0.75174 3.032215,2.72847 4.675705,4.61364 0.916438,1.05121 2.169488,2.46364 2.784554,3.13873 0.615062,0.67509 1.571276,1.8792 2.124924,2.67581 2.048182,2.947 2.579518,3.52824 5.679439,6.21285 3.230088,2.79733 9.055799,7.34751 11.348492,8.86375 1.101867,0.72871 2.185459,1.62667 4.132299,3.4244 1.73248,1.59978 2.70259,2.35108 4.00435,3.10114 2.10673,1.21388 3.05541,1.62537 4.5359,1.96748 2.22275,0.51364 4.75436,0.69364 5.21526,0.37081 z m 7.60719,-2.01121 c 0.16801,-0.0639 0.38154,-0.068 0.53343,-0.0102 0.35678,0.13564 1.46118,-0.55185 3.08,-1.91731 0.70333,-0.59325 1.65405,-1.39069 2.11273,-1.77208 0.45867,-0.3814 1.37499,-1.2169 2.03627,-1.85669 3.1933,-3.08952 9.12688,-8.00066 12.06752,-9.9881 0.45052,-0.30449 1.26145,-0.90499 1.80207,-1.33444 0.54063,-0.42946 1.23503,-0.97327 1.54313,-1.20847 0.30809,-0.2352 1.04828,-0.86997 1.64484,-1.41059 1.31386,-1.19065 2.58028,-2.2327 3.96573,-3.26311 0.97874,-0.72794 4.17974,-3.8883 6.75754,-6.67176 0.95422,-1.03034 3.53779,-4.44491 4.63873,-6.13074 0.27845,-0.4264 0.6938,-0.9916 0.92299,-1.256 0.22919,-0.26439 0.8023,-1.04592 1.27359,-1.73671 0.47129,-0.6908 1.07492,-1.52383 1.34141,-1.85119 1.35013,-1.65853 2.10895,-4.57022 1.96218,-7.52918 -0.0734,-1.47925 -0.26121,-2.18191 -0.78801,-2.94775 -0.20967,-0.30481 -0.38122,-0.59992 -0.38122,-0.65581 0,-0.0559 -0.47919,-0.12457 -1.06486,-0.15263 -0.58568,-0.0281 -1.84335,-0.11332 -2.79484,-0.18947 -1.94994,-0.15606 -5.70252,-0.0207 -7.8811,0.28425 -1.65497,0.23167 -7.45441,0.33117 -9.36365,0.16065 -3.32121,-0.29662 -5.29024,-0.76647 -6.40047,-1.52729 -0.63318,-0.43391 -1.32406,-1.10306 -1.51785,-1.47009 -0.0972,-0.18417 -0.1549,-0.14381 -0.54624,0.38226 -0.54394,0.73121 -1.51819,2.39829 -2.03514,3.48241 -0.4869,1.02109 -1.52821,3.71008 -1.46226,3.77603 0.0269,0.0269 0.2415,-0.0191 0.47692,-0.10214 0.23543,-0.0831 0.64399,-0.1875 0.90791,-0.23209 0.51638,-0.0873 1.23825,-0.54768 2.16612,-1.38166 0.59756,-0.53708 1.38352,-0.89619 2.41626,-1.10398 0.42789,-0.0861 1.01664,-0.0832 2.16963,0.0105 2.68024,0.21788 3.65961,0.55553 3.65961,1.26171 0,0.3914 -0.35961,0.75015 -0.75546,0.75367 -0.17017,0.002 -0.77631,-0.0838 -1.34696,-0.1897 -0.5964,-0.11062 -1.64125,-0.19952 -2.45738,-0.20909 -1.27168,-0.0149 -1.47814,0.01 -1.97882,0.23635 -0.30744,0.13915 -0.71301,0.4119 -0.90126,0.60612 l -0.34226,0.35313 0.47064,0.22865 c 0.57306,0.27842 2.47347,1.98002 3.51622,3.14839 0.98096,1.09914 2.23031,2.16422 2.93855,2.50517 0.36205,0.17429 0.89471,0.30377 1.52504,0.3707 1.10117,0.11695 1.41591,0.31476 1.41591,0.88992 0,0.5591 -0.34188,0.80251 -1.0927,0.77798 -1.33977,-0.0438 -2.6388,-0.50872 -3.64002,-1.3028 -0.27032,-0.21439 -1.42729,-1.33121 -2.57105,-2.48182 -1.85377,-1.86487 -2.17081,-2.13712 -2.91977,-2.50727 -0.81121,-0.40093 -0.86991,-0.41321 -1.70175,-0.3562 -0.976,0.0669 -1.55198,0.2915 -2.35495,0.91832 -0.46158,0.36032 -0.57305,0.52683 -0.79247,1.18381 -0.40061,1.19946 -1.26705,2.84943 -2.12205,4.04102 -0.62922,0.87693 -3.68954,5.45082 -3.94769,5.90013 -0.10006,0.17415 0.51861,2.63123 0.90572,3.5971 0.68914,1.71945 1.40738,3.12218 2.17934,4.25627 1.02942,1.51231 1.54046,2.06718 2.93693,3.18876 1.24502,0.99995 2.09435,1.52192 3.1953,1.96373 0.8263,0.33159 1.21282,0.67582 1.21282,1.08013 0,0.36312 -0.35536,0.73787 -0.69929,0.73744 -0.41049,-4.1e-4 -2.00571,-0.6765 -2.87849,-1.21982 -1.02309,-0.63688 -2.78152,-2.09475 -3.6751,-3.04693 -0.8861,-0.94423 -2.26499,-3.00563 -2.83886,-4.24402 -0.59071,-1.27475 -1.34337,-3.22491 -1.52127,-3.94166 -0.0786,-0.31649 -0.18004,-0.56223 -0.22552,-0.54609 -0.30293,0.10752 -2.06243,2.67044 -3.09432,4.50724 -0.16873,0.30035 -0.57361,0.93045 -0.89974,1.40023 l -0.59296,0.85414 0.13113,1.3848 c 0.11631,1.22837 0.10412,1.69323 -0.10787,4.11522 -0.13145,1.50173 -0.30849,4.00825 -0.39345,5.57005 -0.15577,2.86389 -0.34206,4.49076 -0.86921,7.59057 -0.15833,0.93107 -0.31268,2.08604 -0.34298,2.56659 l -0.0551,0.87373 1.11561,1.181 c 0.99649,1.05488 1.75569,1.71325 1.97566,1.71325 0.0422,0 0.20282,-0.0479 0.35691,-0.10652 z m 1.10319,-32.13721 c 0.35826,-0.43412 0.79342,-0.97831 0.96701,-1.20932 l 0.31563,-0.42002 -0.24422,-1.00232 c -0.44296,-1.81796 -2.04496,-5.23227 -3.08378,-6.57238 -0.32595,-0.42048 -0.71261,-0.9611 -0.85924,-1.20138 l -0.2666,-0.43687 -0.0837,0.98295 c -0.0967,1.13562 -0.0412,2.13151 0.25841,4.63632 0.26364,2.20437 0.46821,3.13453 0.88312,4.01554 0.32947,0.69959 1.22332,1.99677 1.37591,1.99677 0.0473,0 0.37918,-0.35518 0.73744,-0.78929 z m 4.17875,-6.82595 c -0.53959,-0.55941 -3.65135,-2.96423 -4.4011,-3.40125 -0.36041,-0.21008 -0.74131,-0.45432 -0.84643,-0.54276 -0.35314,-0.29709 -0.19561,-0.002 0.47189,0.88379 0.36467,0.48394 0.98522,1.52286 1.379,2.3087 0.75522,1.50711 1.67049,3.73518 1.67261,4.07165 8.2e-4,0.10972 0.4699,-0.50844 1.04268,-1.37367 l 1.04143,-1.57316 z m -12.84559,1.68404 c 0.24847,-1.03035 0.24501,-1.62584 -0.0141,-2.42388 -0.20895,-0.64358 -0.44098,-2.15814 -0.44427,-2.89991 -0.003,-0.77519 -0.14235,-0.7311 -1.05006,0.33328 -0.47276,0.55436 -0.8756,1.07679 -0.8952,1.16096 -0.0196,0.0842 0.10647,0.38574 0.28016,0.67014 0.17369,0.28441 0.34441,0.59398 0.37939,0.68796 0.36655,0.98492 1.43666,3.37502 1.48807,3.32362 0.0366,-0.0366 0.15179,-0.42007 0.25599,-0.85217 z m 15.50649,-4.8144 c 0.34802,-0.68618 0.39625,-0.84579 0.23701,-0.78437 -0.77062,0.29726 -1.97566,0.52572 -3.10808,0.58926 l -1.31258,0.0737 0.9636,0.72889 c 0.52997,0.4009 1.156,0.92732 1.39116,1.16983 l 0.42758,0.44093 0.48219,-0.67835 c 0.2652,-0.37309 0.67881,-1.06602 0.91912,-1.53984 z m -66.929363,1.3673 c 0.369536,-0.17659 0.794757,-0.35325 0.944929,-0.39259 0.614616,-0.16101 1.089681,-0.44394 1.090916,-0.64972 8.25e-4,-0.11486 0.178225,-0.72921 0.394526,-1.36521 0.357391,-1.05084 0.62946,-1.6872 1.899798,-4.44356 0.45038,-0.97722 1.433797,-2.51076 2.083186,-3.24851 l 0.419933,-0.47706 -0.696538,-0.55817 c -1.214359,-0.97313 -1.791123,-2.58325 -1.568238,-4.37797 0.137714,-1.10889 0.05818,-3.39895 -0.176747,-5.0889 -0.09185,-0.66076 -0.390733,-2.06147 -0.66418,-3.11268 -1.194876,-4.59348 -1.478692,-6.55148 -1.131938,-7.809 0.06626,-0.24028 0.520595,-1.14258 1.009645,-2.00512 l 0.889183,-1.56825 2.09926,-1.96236 c 1.154597,-1.0793 2.304883,-2.20795 2.556192,-2.50811 l 0.456928,-0.54575 -0.127197,-0.56535 c -0.121178,-0.53859 -0.799681,-2.77648 -1.926414,-6.35383 -0.283796,-0.90104 -0.708113,-2.29945 -0.942935,-3.10758 -0.457278,-1.57371 -0.484729,-1.63114 -1.177102,-2.46248 -0.250137,-0.30034 -0.583995,-0.81639 -0.741907,-1.14678 -0.375443,-0.7855 -1.719575,-3.14025 -2.618387,-4.5871 -1.242,-1.99928 -1.688611,-2.47724 -5.172796,-5.53588 -0.628638,-0.55186 -1.388721,-1.18794 -1.689065,-1.4135 -0.300349,-0.22557 -0.865546,-0.7006 -1.255993,-1.05562 -0.969974,-0.88195 -2.592622,-1.65886 -4.02656,-1.92786 -2.327049,-0.43656 -3.617267,-0.38001 -4.43774,0.1945 -0.240276,0.16825 -0.682606,0.397 -0.982951,0.50835 -0.300344,0.11134 -0.767248,0.3381 -1.037558,0.5039 -0.441287,0.27067 -1.256258,0.50415 -2.430073,0.69618 -0.225259,0.0369 -0.409564,0.1211 -0.409564,0.18721 0,0.0661 0.293327,0.59222 0.651841,1.16913 0.717553,1.15468 2.505634,3.14527 4.070417,4.53143 0.524856,0.46494 1.016333,0.93242 1.092171,1.03884 0.07584,0.10642 0.492525,0.4667 0.925973,0.80063 0.873075,0.67261 3.438571,3.04426 4.757816,4.39832 1.60674,1.64915 2.811539,3.70565 3.154512,5.38453 0.215992,1.05729 0.871313,2.46955 1.844926,3.97592 1.034298,1.60025 1.578455,3.19809 1.666135,4.89233 0.04078,0.78809 0.171344,1.68321 0.350461,2.40277 0.216891,0.87132 0.300481,1.54302 0.348001,2.79639 0.03439,0.90729 0.02931,1.82671 -0.01131,2.04317 -0.04062,0.21645 -0.270112,0.64186 -0.510008,0.94535 -0.338329,0.42802 -0.495159,0.77819 -0.699114,1.56099 -0.144616,0.55505 -0.441241,1.50066 -0.659168,2.10136 -1.103654,3.04209 -1.263985,3.75663 -1.335595,5.9523 -0.05735,1.75848 0.04804,2.72266 0.52024,4.75967 0.462199,1.99386 0.579311,3.52421 0.475734,6.21662 -0.09471,2.46181 -0.08129,10.64742 0.018,10.98237 0.0277,0.0934 0.258963,0.27764 0.513909,0.40931 0.60004,0.30989 1.282614,0.25309 2.194425,-0.18263 z m -3.046683,-54.11573 c -0.602571,-0.2719 -1.76342,-1.81161 -2.105345,-2.79246 -0.30091,-0.86318 0.03059,-1.8945 0.900224,-2.80064 0.533924,-0.55635 1.026772,-0.68763 1.788073,-0.4763 0.996283,0.27657 2.207275,1.87396 2.207275,2.91158 0,0.78891 -0.568372,2.08196 -1.179905,2.68429 -0.591892,0.583 -1.061607,0.72112 -1.610322,0.47353 z m 52.226736,51.02091 c 1.54863,-1.78495 1.40261,-1.43872 1.20254,-2.8512 -0.0952,-0.67211 -0.20362,-1.60291 -0.24093,-2.06844 -0.0373,-0.46554 -0.0929,-0.84643 -0.12362,-0.84643 -0.0307,0 -0.30909,0.0716 -0.61868,0.15905 -0.56687,0.16019 -1.99406,0.34863 -3.63436,0.47987 l -0.88714,0.071 1.34495,2.56659 c 1.53063,2.92092 1.90091,3.60415 1.95329,3.60415 0.0203,0 0.47209,-0.50156 1.00395,-1.11458 z m 16.91267,-0.38998 c 0.36041,-0.11499 0.9579,-0.36252 1.32775,-0.55008 l 0.67245,-0.34102 0.30006,-0.90459 c 0.16503,-0.49753 0.39203,-1.12049 0.50443,-1.38437 0.17693,-0.41534 0.18367,-0.50335 0.0502,-0.6553 -0.0848,-0.0965 -0.2806,-0.42787 -0.43512,-0.73629 -0.21675,-0.43265 -0.50029,-0.73043 -1.24114,-1.30346 -0.52811,-0.40849 -2.06602,-1.82716 -3.41758,-3.15261 l -2.45738,-2.4099 -1.69285,-0.86539 c -0.93108,-0.47596 -2.15064,-1.15212 -2.71015,-1.50256 -1.11329,-0.69731 -1.66003,-0.99851 -1.71337,-0.94391 -0.019,0.0194 0.008,0.45311 0.0595,0.9637 0.0517,0.51059 0.14711,1.69013 0.21193,2.6212 0.12585,1.80762 0.43089,4.02371 0.77422,5.62466 0.11594,0.54062 0.25587,1.51123 0.31094,2.1569 l 0.10015,1.17393 0.62385,0.57353 c 1.08524,0.99769 2.32283,1.57011 3.94982,1.82691 1.07234,0.16925 4.0219,0.0512 4.78227,-0.19135 z m 4.85874,-8.04963 0.21807,-0.35284 -0.38956,-0.40112 c -0.49719,-0.51194 -2.10344,-1.32132 -2.94551,-1.48422 -0.35727,-0.0691 -1.08379,-0.11036 -1.61449,-0.0916 l -0.96492,0.034 0.40751,0.54608 c 0.74503,0.99838 1.40377,1.59431 2.3328,2.11035 0.50584,0.28097 1.16917,0.73884 1.47409,1.01748 l 0.55439,0.50662 0.35477,-0.76593 c 0.19513,-0.42126 0.45291,-0.92471 0.57285,-1.11877 z m -24.94163,0.97562 c 0.95788,-0.16678 2.11738,-0.53191 2.80226,-0.88244 1.47026,-0.7525 1.83145,-1.41316 2.08234,-3.80882 0.0944,-0.90104 0.20473,-2.32632 0.24526,-3.16729 l 0.0737,-1.52903 -0.52722,0.60069 c -0.65915,0.751 -2.10328,2.17501 -3.42552,3.37778 -0.99878,0.90853 -1.72852,1.88871 -3.01448,4.04896 -0.23242,0.39045 -0.4877,0.78881 -0.56729,0.88524 -0.48144,0.58338 0.52741,0.78893 2.33094,0.47491 z m -36.924565,-1.65421 c 0.843309,-0.53973 1.514783,-0.78724 3.106835,-1.14523 1.109078,-0.24939 1.620988,-0.31523 2.075116,-0.26692 1.985361,0.21121 2.228187,0.20895 3.095116,-0.0289 2.127248,-0.5836 3.668989,-1.90678 5.104685,-4.38103 0.640973,-1.10464 1.506411,-2.79797 1.696682,-3.31974 l 0.155163,-0.42549 -0.524096,-0.55746 c -1.074227,-1.1426 -2.172531,-4.009 -2.598937,-6.78281 -0.309174,-2.01123 -0.146622,-4.75776 0.35229,-5.95232 0.145087,-0.34738 0.803838,-1.09297 1.769976,-2.0033 1.498262,-1.41172 1.977691,-1.80969 2.330215,-1.93429 l 0.402658,-0.14231 -0.537742,-0.77788 c -0.295759,-0.42783 -0.673546,-0.90293 -0.839524,-1.05579 -0.301657,-0.2778 -2.613359,-1.76016 -3.271537,-2.09784 -0.986752,-0.50626 -3.428614,-0.77298 -4.601101,-0.50256 -0.694821,0.16024 -1.906769,0.791 -2.550198,1.32724 -0.549854,0.45826 -0.883816,0.77877 -4.364875,4.18906 -0.922981,0.90422 -2.243349,2.18205 -2.934145,2.83963 -1.042326,0.99221 -1.339599,1.3507 -1.747466,2.10732 -0.27031,0.50144 -0.626633,1.15826 -0.791822,1.45959 -0.58005,1.05811 -0.410575,2.54024 0.852807,7.4582 0.324055,1.26145 0.671923,2.85875 0.77304,3.54955 0.176335,1.20466 0.24849,3.79675 0.163018,5.85627 -0.03005,0.72364 0.0063,0.98429 0.197156,1.41583 0.286483,0.64765 0.474458,0.86667 1.07319,1.25049 0.585139,0.3751 0.929961,0.35815 1.613496,-0.0793 z m 82.564175,-0.29623 c 0.66075,-0.0933 2.34665,-0.22767 3.74644,-0.29858 2.09464,-0.1061 2.8678,-0.10168 4.36867,0.025 3.45621,0.29175 5.18193,0.16815 7.88514,-0.56475 0.90101,-0.24428 1.98797,-0.88552 2.5112,-1.48144 0.88482,-1.00776 1.69283,-3.56603 1.77737,-5.62743 0.0245,-0.59827 0.095,-1.01452 0.19125,-1.13055 0.20422,-0.24607 1.24812,-0.90782 1.81618,-1.15132 0.59264,-0.25404 1.30809,-0.90425 1.57876,-1.43481 0.11758,-0.23046 0.25595,-0.75488 0.30749,-1.16538 0.0762,-0.60708 0.2892,-1.23816 0.63746,-1.88892 0.0412,-0.0769 -1.36661,-1.0368 -1.82984,-1.24761 -0.43713,-0.19893 -0.69899,-0.56638 -0.69899,-0.98083 0,-0.32829 0.1125,-0.48933 0.84081,-1.20361 0.90164,-0.88427 1.00776,-1.09806 0.92213,-1.85779 -0.0963,-0.85452 -0.67448,-1.24497 -2.14082,-1.44575 -0.50217,-0.0688 -0.94931,-0.1026 -0.99365,-0.0752 -0.0443,0.0274 -0.38557,0.059 -0.7583,0.0702 -0.65116,0.0195 -0.69486,0.004 -1.117,-0.40575 -0.24163,-0.23435 -0.50916,-0.57353 -0.59451,-0.75373 -0.0854,-0.18021 -0.4386,-0.78502 -0.78499,-1.34403 -1.15484,-1.86369 -2.06625,-2.66697 -3.19602,-2.81684 -0.7428,-0.0985 -2.63732,0.15695 -3.54711,0.47835 -1.40825,0.49748 -4.33473,2.06382 -6.17075,3.30277 -0.74852,0.50511 -3.03761,1.65411 -3.76798,1.89133 -0.30034,0.0975 -0.91468,0.22815 -1.36521,0.29021 -1.0238,0.14103 -2.4097,0.78031 -3.0108,1.38882 -0.23624,0.23914 -0.6379,0.72491 -0.89259,1.07948 -0.25469,0.35456 -0.75621,0.98869 -1.11449,1.40918 -0.99308,1.16551 -1.80124,2.41613 -2.22404,3.44169 -0.21019,0.50984 -0.56557,1.13956 -0.78974,1.39939 -0.40892,0.47394 -0.59251,0.60737 -1.90706,1.38598 -1.70248,1.00839 -2.95974,2.14917 -3.91008,3.54784 -0.6854,1.00874 -0.89933,1.4862 -1.32129,2.94885 -0.32241,1.11756 -0.37703,1.84939 -0.17399,2.33091 0.13206,0.3132 1.36144,1.1547 1.93637,1.32543 0.64539,0.19167 2.98161,0.57661 4.28812,0.70656 1.55035,0.15421 8.08315,0.0527 9.50186,-0.14765 z m 21.17424,-10.98001 c -0.35815,-0.15247 -0.73653,-0.76141 -0.74527,-1.19935 -0.004,-0.21503 -0.0994,-0.52687 -0.2114,-0.69298 -0.27976,-0.41497 -0.2552,-0.77531 0.0831,-1.21883 0.15768,-0.20673 0.28669,-0.41973 0.28669,-0.47334 0,-0.21899 0.55946,-0.60882 0.87374,-0.60882 0.33314,0 0.78861,0.33268 1.00479,0.7339 0.15893,0.29499 0.24108,0.96964 0.24417,2.00532 0.002,0.8202 -0.0221,0.92547 -0.27406,1.17746 -0.30228,0.30229 -0.89582,0.43242 -1.26175,0.27664 z m -1.40601,-6.33408 c -0.36409,-0.15101 -0.56786,-0.46395 -0.79085,-1.21454 -0.3364,-1.1323 -0.13999,-1.38222 1.41069,-1.79495 1.19216,-0.3173 1.3598,-0.2906 1.9331,0.30791 0.59197,0.61801 0.50723,0.90333 -0.64165,2.16039 -0.45522,0.49808 -0.53579,0.54123 -1.09217,0.58477 -0.33038,0.0259 -0.69898,0.006 -0.81912,-0.0436 z m -68.03031,16.24708 c 0.31035,-0.51225 0.59812,-1.1317 0.63949,-1.37657 l 0.0752,-0.44521 -0.50759,-0.0761 c -0.54772,-0.0821 -2.19772,-0.0178 -2.30543,0.0899 -0.10133,0.10134 1.28797,2.82134 1.41879,2.77773 0.0634,-0.0211 0.36917,-0.45752 0.67952,-0.96976 z m 29.93629,-1.52542 0.26854,-0.28848 -0.32591,-1.5136 c -0.17925,-0.83248 -0.38816,-1.8822 -0.46424,-2.33272 -0.24739,-1.46496 -0.14033,-4.88232 0.17903,-5.71455 0.0428,-0.11146 -0.0547,-0.17791 -0.33927,-0.23129 -0.21961,-0.0412 -1.38981,-0.34883 -2.60045,-0.68363 -2.05162,-0.56736 -2.30134,-0.61214 -3.67559,-0.65914 -1.30076,-0.0445 -1.64166,-0.0156 -2.89424,0.24464 -1.1672,0.24256 -1.8579,0.31005 -3.88197,0.3793 -2.88436,0.0987 -3.05196,0.14967 -3.76321,1.14484 -0.73656,1.03059 -0.76566,1.48294 -0.18002,2.79834 0.6933,1.55723 1.08851,2.04315 2.58021,3.17239 0.80913,0.61253 4.00295,2.34857 4.71487,2.56283 0.27038,0.0814 1.36035,0.20093 2.42215,0.26568 3.11574,0.19001 4.72567,0.71284 6.20594,2.01541 l 0.51987,0.45747 0.48288,-0.66451 c 0.26558,-0.36548 0.60372,-0.79432 0.75141,-0.95298 z m -28.45632,-2.49317 c 1.35332,-0.14215 2.04006,-0.51604 3.22973,-1.75846 1.15102,-1.20206 1.37775,-1.50739 2.25837,-3.04124 0.45155,-0.7865 0.77919,-1.51869 0.93051,-2.0795 0.22733,-0.8425 0.22912,-0.90367 0.0672,-2.29276 -0.0915,-0.78494 -0.23782,-1.75853 -0.32519,-2.16352 -0.28653,-1.328 -0.40423,-2.2734 -0.53426,-4.29122 l -0.12821,-1.98976 -0.46619,0.3899 c -0.5869,0.49086 -1.56647,0.95868 -3.27692,1.56498 -1.62418,0.57573 -2.08908,0.80598 -2.6494,1.3122 -0.58939,0.53247 -1.73041,2.82275 -2.11809,4.25148 -1.11298,4.10162 -1.618,5.12895 -3.11673,6.34023 -0.36231,0.29282 -0.65893,0.58752 -0.65915,0.6549 -2.2e-4,0.0674 0.23615,0.48514 0.52527,0.92834 0.28912,0.44321 0.72638,1.14987 0.97168,1.57035 l 0.446,0.76452 1.94987,-0.0305 c 1.07243,-0.0168 2.3754,-0.0753 2.89548,-0.12989 z m 31.19743,-2.91297 c 1.12035,-1.63495 2.898,-3.21923 4.82683,-4.30173 0.45051,-0.25285 0.92405,-0.55545 1.05231,-0.67247 0.12825,-0.11701 0.41554,-0.65269 0.63842,-1.1904 0.47783,-1.15283 1.15088,-2.20766 2.2241,-3.48573 0.42874,-0.51059 1.05272,-1.30688 1.38661,-1.76952 0.76207,-1.05593 1.46546,-1.69182 2.41786,-2.18583 0.94745,-0.49145 1.62822,-0.70878 2.65628,-0.84801 0.65242,-0.0883 1.11381,-0.25479 2.26696,-0.81774 0.79631,-0.38875 1.77926,-0.92209 2.18434,-1.18521 2.4818,-1.61203 5.11012,-2.97357 6.74342,-3.49326 1.0482,-0.33352 2.90045,-0.56641 3.75213,-0.47177 0.98444,0.1094 2.048,0.70865 2.92962,1.65066 0.86559,0.92485 1.02991,1.14443 1.65594,2.21271 0.44091,0.75239 0.6727,0.97338 0.6727,0.64137 0,-0.0828 0.0787,-0.21577 0.1749,-0.29561 0.18531,-0.15379 0.84296,-1.09829 1.16283,-1.67 0.27131,-0.48492 0.25703,-1.54276 -0.0271,-2.00879 -0.24038,-0.39425 -1.2395,-1.07338 -2.54244,-1.72817 -0.46725,-0.23482 -1.28774,-0.7464 -1.82331,-1.13685 -0.53556,-0.39045 -1.13162,-0.8082 -1.32458,-0.92834 -0.41988,-0.26143 -0.56454,-0.59514 -0.38918,-0.89774 0.0699,-0.12068 0.24391,-0.43496 0.3866,-0.6984 0.22757,-0.42015 0.70176,-1.1507 1.78838,-2.75519 0.31467,-0.46464 0.40336,-1.11045 0.16383,-1.19291 -0.0751,-0.0258 -0.26362,-0.003 -0.41896,0.0499 -0.22444,0.077 -0.45525,0.44086 -1.12411,1.77189 -1.19336,2.37476 -2.28353,3.53046 -3.05399,3.23753 -0.14638,-0.0556 -0.48048,-0.38174 -0.74244,-0.72464 -0.26196,-0.3429 -0.62374,-0.79717 -0.80395,-1.00948 -0.491,-0.57847 -2.20681,-1.35347 -4.04456,-1.82686 -1.34372,-0.34613 -1.76946,-0.40472 -3.57301,-0.49163 -1.22036,-0.0588 -2.25722,-0.0588 -2.5666,1e-4 -0.74833,0.1424 -4.2914,1.7613 -4.81453,2.19986 -0.3406,0.28554 -0.54568,0.61199 -0.88528,1.40919 -0.24309,0.57066 -0.52159,1.30787 -0.61887,1.63825 -0.27137,0.92153 -0.89707,2.38508 -1.33074,3.11268 -0.75012,1.25849 -1.59423,2.26395 -3.83156,4.56395 -2.95586,3.03863 -3.3866,3.59245 -4.59418,5.90688 -1.38456,2.6536 -2.0702,4.6898 -2.30322,6.84002 -0.13525,1.24801 -0.0903,2.23075 0.18827,4.11907 l 0.18071,1.22484 0.33775,-0.89719 c 0.19094,-0.5072 0.63509,-1.3311 1.02182,-1.89547 z m -38.82474,-2.69844 c 0.60595,-0.73948 1.14045,-1.72096 1.60092,-2.93975 0.23229,-0.61485 0.50469,-1.31225 0.60533,-1.54979 0.10064,-0.23754 0.34379,-0.95017 0.54034,-1.58364 0.19654,-0.63346 0.43713,-1.33378 0.53463,-1.55624 l 0.17728,-0.40449 -0.41953,0.14802 c -1.62613,0.57373 -3.575857,2.1991 -4.657699,3.88285 -0.250872,0.39045 -0.540339,0.77945 -0.643259,0.86445 -0.30143,0.24896 -0.128237,1.24652 0.323959,1.86597 0.928641,1.27208 1.31198,1.7411 1.425571,1.74415 0.06785,0.002 0.298458,-0.21037 0.512458,-0.47153 z m -9.276619,0.24926 c 0.247244,-0.064 0.70602,-0.18889 1.019504,-0.27754 0.944202,-0.26702 2.332981,-0.47952 3.134805,-0.47968 0.98146,-1.9e-4 1.155376,-0.14334 1.155376,-0.95094 0,-0.62453 -0.579323,-3.91714 -0.821059,-4.66654 -0.855738,-2.65285 -2.288793,-5.83804 -3.177665,-7.06286 -0.470178,-0.64789 -1.108959,-1.08117 -1.422789,-0.96508 -0.145466,0.0538 -0.346102,0.0245 -0.544409,-0.0796 -0.198402,-0.10414 -0.485434,-0.14608 -0.779492,-0.1139 -0.402179,0.044 -0.587748,0.16727 -1.365209,0.9068 -1.394004,1.32601 -2.130806,2.18028 -2.271191,2.63329 -0.194497,0.62763 -0.258339,3.30354 -0.106107,4.44729 0.283049,2.12659 0.848898,3.93416 1.724607,5.50912 0.32926,0.59216 0.469162,0.73371 0.943488,0.95458 0.621398,0.28933 1.709804,0.35225 2.510141,0.14508 z m 46.724169,-6.68452 0.37974,-0.71514 -1.36116,-0.0785 c -1.95902,-0.11299 -3.36007,-0.0254 -3.91624,0.24478 -0.71537,0.34754 -2.33198,1.36284 -2.33198,1.46459 0,0.31998 1.93644,0.90052 4.52204,1.35568 0.83522,0.14704 1.54481,0.29356 1.57686,0.32561 0.0321,0.0321 0.21414,-0.37825 0.40464,-0.91179 0.1905,-0.53354 0.51724,-1.29189 0.7261,-1.68522 z m -61.285879,-13.9657 c 0.33371,-0.27878 1.005361,-0.70729 1.492558,-0.95225 1.215185,-0.61098 2.172721,-0.8129 3.619988,-0.76334 l 1.161361,0.0397 -0.04008,-0.87369 c -0.07239,-1.57837 0.433918,-3.54012 1.466189,-5.68095 0.472893,-0.98074 0.726093,-1.35364 1.378657,-2.0304 0.7719,-0.80052 0.829406,-0.8369 1.673111,-1.05849 1.78489,-0.46878 2.818626,-0.56157 3.9955,-0.35865 1.494139,0.25763 2.115599,0.33679 3.561884,0.45371 1.508355,0.12193 1.566678,0.11862 2.147301,-0.12204 0.522651,-0.21662 0.633233,-0.31931 0.889673,-0.82615 0.161062,-0.31834 0.392268,-1.08518 0.513789,-1.7041 0.271457,-1.38254 0.185011,-1.85373 -0.45296,-2.46892 -0.465774,-0.44914 -3.928869,-2.64281 -4.172137,-2.64281 -0.324303,0 -1.779466,-0.78807 -2.341027,-1.26783 -0.6291,-0.53746 -0.80456,-0.95938 -0.610843,-1.4689 0.05794,-0.15239 0.378271,-0.65748 0.711848,-1.12241 0.333574,-0.46494 0.808119,-1.26578 1.054541,-1.77965 0.383926,-0.8006 0.450616,-1.04618 0.466013,-1.71608 0.02852,-1.24132 -0.403067,-1.80879 -1.101157,-1.44779 -0.748582,0.38711 -1.264687,1.07116 -2.191721,2.90496 -0.50105,0.99114 -1.03684,1.93636 -1.190649,2.10048 -0.153805,0.16412 -0.488427,0.37814 -0.743604,0.47559 -0.788173,0.30101 -1.390814,-0.0219 -1.88727,-1.01133 -0.269047,-0.5362 -0.950514,-3.10432 -1.052803,-3.96751 -0.161829,-1.36566 -0.39744,-1.76436 -1.164742,-1.97097 -1.09357,-0.29447 -1.237298,0.33052 -0.527266,2.29271 0.240279,0.66401 0.63346,1.75057 0.873735,2.41458 0.240276,0.66401 0.436866,1.37823 0.436866,1.58715 0,0.47836 -0.22504,1.01815 -0.542473,1.30119 -0.344331,0.30702 -1.279283,0.28512 -2.129952,-0.0499 -1.002187,-0.39469 -1.610916,-1.08261 -2.516915,-2.84435 -0.924183,-1.7971 -1.633616,-2.87639 -2.285907,-3.47766 -0.718412,-0.6622 -1.298498,-0.57022 -1.298498,0.20591 0,0.45385 0.409357,0.97419 1.351108,1.71743 1.561732,1.23253 2.330797,2.32186 2.947931,4.17552 0.51681,1.55232 -0.08001,2.30934 -2.023687,2.56689 -0.300349,0.0398 -0.743047,0.15856 -0.983781,0.26392 -0.503423,0.22032 -1.380325,1.05721 -1.799816,1.71769 -0.158197,0.24908 -0.661439,0.82306 -1.118316,1.27551 -0.456874,0.45245 -0.964805,1.05959 -1.128735,1.3492 -0.163931,0.28961 -0.484634,0.83198 -0.71267,1.20526 -0.22804,0.37329 -0.588107,1.07904 -0.800148,1.56834 -0.89875,2.07393 -0.817208,3.27025 0.494293,7.25179 0.356706,1.08292 0.724385,2.26382 0.817064,2.62424 0.09268,0.36041 0.442801,1.50524 0.778051,2.54405 l 0.609539,1.88875 0.884699,-0.9058 c 0.486586,-0.49819 1.157737,-1.13389 1.491447,-1.41268 z M 99.558419,70.604301 c 0.871001,-0.18246 1.952251,-0.401377 2.402771,-0.486481 1.61942,-0.305913 3.41343,-1.096137 4.96984,-2.189116 0.80105,-0.562531 2.15217,-1.965572 2.44433,-2.538257 l 0.21473,-0.420911 -0.94751,-0.226464 c -0.64136,-0.153293 -1.56506,-0.5258 -2.8588,-1.152895 l -1.9113,-0.926436 -0.60069,0.550527 c -0.83974,0.769609 -2.33568,1.730348 -3.348669,2.150607 -0.470896,0.195364 -1.078276,0.467164 -1.349729,0.603999 -1.32232,0.666562 -6.75781,2.396229 -9.772824,3.109884 -0.7809,0.184839 -1.616411,0.390398 -1.856686,0.456799 l -0.436866,0.120728 0.32765,0.09685 c 0.180207,0.05327 1.531765,0.33775 3.00346,0.632181 1.471696,0.294431 2.79868,0.560416 2.948852,0.591077 0.150173,0.03066 1.37886,0.03413 2.730418,0.0077 2.206346,-0.04314 2.619155,-0.08194 4.041023,-0.379792 z M 85.547445,68.335002 c 0.493414,-0.18582 1.525511,-0.488996 2.293552,-0.673723 6.850832,-1.647725 11.970824,-3.607987 14.204683,-5.43847 l 0.46703,-0.382691 -0.41228,-0.277931 c -0.72867,-0.491222 -2.573705,-1.941746 -3.361139,-2.64244 -0.420482,-0.374168 -1.329713,-1.158605 -2.020509,-1.743195 -1.363979,-1.154274 -3.159924,-2.887454 -4.877459,-4.707014 l -1.090697,-1.155483 -0.897157,0.298008 c -0.493438,0.163905 -1.349956,0.567356 -1.903376,0.896558 -1.179397,0.701574 -2.558929,1.403656 -3.375374,1.71782 -1.513502,0.58239 -4.239523,1.117198 -6.695829,1.313627 -0.660758,0.05284 -1.643708,0.149813 -2.184332,0.2155 -0.983591,0.119502 -6.023118,0.0678 -6.561459,-0.06731 -0.145524,-0.03653 -0.264589,-0.02188 -0.264589,0.03253 0,0.155601 1.281351,2.195853 1.870531,2.978387 0.957688,1.271973 2.414272,2.753187 4.027174,4.095269 3.257501,2.710533 3.900282,3.15364 6.935262,4.780866 2.657883,1.425042 2.595383,1.397294 2.78503,1.236485 0.0901,-0.07641 0.567525,-0.290958 1.060938,-0.476778 z m 24.920365,-5.434969 c 0.0833,-0.295721 0.15317,-1.004577 0.15514,-1.575232 0.003,-0.884381 -0.0561,-1.239115 -0.40074,-2.402772 -0.48472,-1.636645 -1.89935,-4.587334 -2.60057,-5.424332 -0.62876,-0.750518 -2.3236,-2.302311 -3.48821,-3.193808 -0.51724,-0.395938 -1.37096,-1.100785 -1.89716,-1.566323 -0.52619,-0.465534 -0.99994,-0.84643 -1.05277,-0.84643 -0.0528,0 -0.096,0.09832 -0.096,0.218485 0,0.348657 -0.72179,3.163283 -0.98027,3.822538 -0.372953,0.951232 -0.954682,1.946595 -1.708197,2.922776 -0.383484,0.496811 -0.697248,0.941775 -0.697248,0.988808 0,0.119147 2.243922,2.090622 3.494935,3.0706 1.60454,1.256898 2.82959,2.011346 5.00065,3.079608 1.76604,0.868981 3.5968,1.537086 4.00973,1.463279 0.0601,-0.01073 0.17741,-0.261476 0.26076,-0.557197 z m 37.74667,-1.451404 c 0.90103,-0.192186 2.056,-0.475268 2.56659,-0.629068 1.41886,-0.427392 4.01452,-1.408684 5.25343,-1.986058 l 1.11144,-0.517974 -1.68071,-0.796235 c -2.13294,-1.010488 -3.55322,-1.858808 -6.18553,-3.694574 -2.41193,-1.682077 -3.86954,-2.800942 -5.08577,-3.90384 -1.31828,-1.195446 -1.1518,-1.165156 -2.42324,-0.440878 -0.6007,0.342184 -2.24714,1.213967 -3.65876,1.937295 -4.43036,2.270142 -7.00818,3.888675 -9.15855,5.750339 -0.80232,0.694606 -1.7209,1.45951 -2.04129,1.699786 -0.32039,0.240275 -0.58545,0.465839 -0.58905,0.501248 -0.0114,0.112286 0.4637,0.284819 1.47216,0.534647 0.53829,0.133347 1.39645,0.363798 1.90704,0.512108 0.58046,0.168607 1.29668,0.284481 1.91129,0.309215 0.54062,0.02175 1.84631,0.214617 2.90153,0.428577 2.87181,0.582305 4.39145,0.70217 8.51162,0.671376 3.5313,-0.02638 3.55797,-0.02832 5.1878,-0.375964 z m -21.24306,-4.642896 c 0.51081,-0.441126 1.2482,-1.080464 1.63865,-1.420754 0.39045,-0.340285 1.41026,-1.086866 2.26625,-1.659059 0.85599,-0.572194 1.55634,-1.05521 1.55634,-1.073364 0,-0.01816 -0.14589,-0.593139 -0.3242,-1.277743 -0.40515,-1.555525 -0.60169,-2.732799 -0.82775,-4.958101 -0.17491,-1.721878 -0.17229,-2.543144 0.0202,-6.329389 l 0.0664,-1.305421 -0.46105,0.532711 c -0.67554,0.780524 -2.91443,3.815863 -3.40109,4.610958 -0.99364,1.623416 -2.03242,4.082611 -2.32282,5.499026 -0.51822,2.527537 -0.52159,4.314107 -0.0126,6.6578 0.21024,0.968028 0.38226,1.784584 0.38226,1.814561 0,0.09203 0.44873,-0.252957 1.41942,-1.091225 z m 33.33745,-0.248961 c 1.34947,-0.797584 3.81461,-2.477457 5.43489,-3.703605 2.20192,-1.666301 6.06298,-5.356573 7.24449,-6.924036 0.43062,-0.571285 1.07071,-1.405356 1.42241,-1.853491 l 0.63947,-0.814785 -0.96712,-0.261451 c -0.53191,-0.143799 -1.53231,-0.425461 -2.22311,-0.625919 -0.69079,-0.200453 -1.64917,-0.464584 -2.12973,-0.586955 -1.10878,-0.282351 -1.99619,-0.595463 -4.02663,-1.420762 -1.99844,-0.812291 -3.01382,-1.3563 -5.03856,-2.699511 l -1.57429,-1.044382 -1.12405,0.961927 c -0.61822,0.529062 -1.56637,1.357238 -2.10699,1.840389 -0.54063,0.483152 -1.37613,1.219796 -1.85668,1.636993 -0.48056,0.417192 -1.48808,1.354129 -2.23895,2.08208 -1.59261,1.544008 -2.66313,2.325972 -4.69632,3.430431 -0.81093,0.440511 -1.73765,0.948302 -2.05937,1.128426 l -0.58496,0.327497 0.63956,0.588252 c 1.0037,0.923187 4.18302,3.2922 6.44239,4.800436 2.34781,1.567272 6.63046,3.77205 7.49295,3.857493 0.0443,0.0044 0.63408,-0.319172 1.3106,-0.719027 z M 97.16709,53.873784 c 1.243345,-1.6769 1.812526,-3.185251 2.375387,-6.294885 l 0.185015,-1.022144 -1.040183,-1.054136 c -0.572104,-0.579777 -1.432774,-1.54509 -1.912603,-2.145143 -0.479824,-0.600049 -1.162274,-1.410458 -1.516549,-1.80091 -0.893689,-0.98494 -3.627504,-4.651919 -4.874425,-6.538268 -0.826112,-1.249748 -1.044262,-1.51636 -1.072373,-1.310601 -0.135439,0.991355 -1.103992,4.03914 -1.859728,5.852087 -0.432742,1.038103 -1.270263,2.566995 -1.53983,2.810952 -0.211034,0.190981 -0.20374,0.208301 0.455713,1.08247 0.368595,0.488613 0.898693,1.158699 1.177989,1.489078 0.279296,0.330383 1.065158,1.313334 1.746352,2.184336 1.905672,2.436662 6.726752,7.645176 7.076495,7.645176 0.0731,0 0.432531,-0.404107 0.79874,-0.898012 z m -20.926447,0.184863 c 6.170289,-0.57124 8.027222,-1.094845 11.345152,-3.199014 0.283825,-0.179996 0.832989,-0.439157 1.220366,-0.575913 0.387372,-0.136753 0.704315,-0.281781 0.704315,-0.322284 0,-0.04049 -0.186271,-0.289439 -0.413935,-0.553193 -0.227665,-0.263751 -0.913207,-1.118465 -1.523418,-1.899365 -0.610216,-0.780899 -1.468332,-1.866064 -1.906923,-2.411477 -0.438591,-0.545412 -1.902266,-2.446522 -3.252614,-4.224688 -1.703171,-2.242775 -2.492941,-3.201685 -2.578479,-3.130693 -0.06782,0.05628 -0.409799,0.200903 -0.759962,0.321375 -2.04157,0.702404 -6.97319,0.78755 -9.933592,0.171505 -3.389033,-0.705239 -4.443681,-0.984263 -6.03189,-1.595824 l -0.823305,-0.31703 0.07535,0.624057 c 0.04144,0.343229 0.146982,1.261335 0.23453,2.040232 0.206584,1.837904 0.416767,2.701006 1.476996,6.065168 1.135715,3.603691 1.951033,5.65099 3.001623,7.537211 l 0.848976,1.524239 0.390423,-0.05374 c 0.214736,-0.02956 0.931047,-0.01647 1.591809,0.02906 2.228884,0.153652 4.467927,0.143179 6.334574,-0.02964 z m 58.132777,-2.492515 c 0.22407,-0.141244 1.39035,-0.753284 2.59173,-1.360082 1.20138,-0.606802 3.16729,-1.649781 4.36867,-2.317729 1.20139,-0.667952 3.01985,-1.659815 4.04102,-2.204138 2.36789,-1.262177 4.02087,-2.352097 3.92832,-2.59021 -0.14434,-0.371368 -0.59029,-2.399902 -0.69813,-3.175658 -0.0626,-0.450521 -0.18544,-1.752928 -0.27292,-2.894245 -0.13713,-1.789187 -0.13838,-2.406193 -0.009,-4.477884 0.18701,-2.995491 0.32931,-4.259769 0.6515,-5.788487 0.13926,-0.660762 0.23927,-1.21668 0.22224,-1.235375 -0.13281,-0.145817 -6.4891,3.437705 -8.24524,4.648469 -2.00589,1.382946 -5.16289,4.010033 -7.24057,6.0252 -0.4031,0.390968 -0.5755,1.166865 -0.71786,3.230849 -0.29173,4.2296 -0.24804,6.179031 0.20805,9.283422 0.12685,0.863387 0.6454,3.112675 0.71759,3.112675 0.026,0 0.23058,-0.115564 0.45465,-0.256807 z m 19.57493,-12.53411 c 1.05122,-0.926844 2.42735,-2.124837 3.05808,-2.662204 2.23608,-1.90511 6.05621,-5.478153 9.36256,-8.757001 l 1.56063,-1.547648 -0.16297,-0.691296 c -0.21387,-0.9072 -0.21924,-3.428354 -0.009,-4.425794 0.0862,-0.409927 0.27761,-1.125779 0.42528,-1.590785 0.14766,-0.465001 0.25198,-0.845459 0.23181,-0.845459 -0.0201,0 -0.59243,0.16774 -1.27169,0.372756 -0.67927,0.205019 -1.73112,0.497462 -2.33744,0.64988 -1.17006,0.294128 -4.05414,1.300752 -6.7612,2.359846 -0.90104,0.352516 -2.3005,0.871072 -3.10991,1.15235 -0.80942,0.281278 -1.97665,0.739852 -2.59386,1.019053 -1.09903,0.49717 -1.12551,0.517785 -1.28364,0.99912 -0.29085,0.885339 -0.59253,2.324734 -0.76468,3.648416 -0.2165,1.66469 -0.48718,6.146028 -0.42282,7.000213 0.17349,2.302675 0.40087,4.466925 0.53881,5.128541 0.27046,1.297169 0.20185,1.259485 0.958,0.526123 0.36915,-0.358019 1.53126,-1.40927 2.58247,-2.336111 z m 23.93415,0.146425 c 0.93969,-1.425183 1.90343,-2.935276 2.14164,-3.355758 2.6996,-4.765208 3.2506,-5.941983 4.50405,-9.619306 0.59949,-1.758769 0.61921,-1.679881 -0.42072,-1.683138 -0.47162,-0.0016 -2.6798,-0.557408 -3.83788,-0.966225 -0.62634,-0.221109 -3.31534,-1.387643 -3.86764,-1.677854 l -0.31811,-0.16715 -1.64779,1.274499 c -0.9063,0.700975 -2.50789,1.940535 -3.5591,2.754582 -1.16144,0.89941 -2.53345,2.096759 -3.49709,3.051921 -1.92883,1.911834 -5.86911,5.685534 -6.56858,6.290875 l -0.50921,0.440684 1.37242,0.90625 c 0.75483,0.498437 1.86863,1.163897 2.47511,1.478796 1.40232,0.72812 4.51828,1.962343 5.6749,2.247811 0.48875,0.120624 1.35553,0.359443 1.92619,0.5307 0.89624,0.268968 2.44496,0.697838 3.54954,0.982938 0.83368,0.215178 0.73811,0.307313 2.58227,-2.489625 z m -92.186092,0.35761 c 0.697066,-1.465207 1.550914,-3.902867 1.836274,-5.242404 0.187042,-0.87802 0.353569,-2.007468 0.466983,-3.167286 0.0059,-0.06007 -0.172294,-0.428676 -0.39593,-0.819123 -0.223632,-0.390452 -0.892802,-1.668286 -1.487039,-2.839637 -1.565786,-3.086455 -2.475178,-4.495085 -4.154481,-6.43522 -0.635768,-0.734519 -2.605013,-2.568716 -2.6729,-2.489597 -0.01114,0.013 0.02667,0.564277 0.08407,1.225038 0.255057,2.936143 -0.742841,7.660085 -2.192634,10.379692 l -0.443627,0.832176 0.836259,1.110894 c 0.45994,0.610994 1.213633,1.553224 1.674865,2.093848 0.461233,0.540619 1.671514,2.088767 2.68951,3.440325 1.017992,1.351558 2.06713,2.736419 2.331417,3.077477 l 0.480514,0.620098 0.213564,-0.34706 c 0.117458,-0.190877 0.447379,-0.838528 0.733155,-1.439221 z m -8.855077,-2.685853 c 0.570659,-0.06108 1.298441,-0.18431 1.61729,-0.273835 L 79.038349,36.41359 78.481374,35.73588 C 76.412305,33.218308 74.948939,31.246914 73.519389,29.051251 73.167401,28.510627 72.43259,27.401206 71.886476,26.585872 l -0.992932,-1.482428 -0.53241,0.156071 c -0.440626,0.129165 -0.768627,0.135031 -1.902675,0.03401 -1.8282,-0.162828 -3.146095,-0.44437 -5.050788,-1.078989 -0.871003,-0.290207 -1.669648,-0.566907 -1.774768,-0.614885 -0.17799,-0.08123 -0.190898,0.03934 -0.187707,1.753832 0.0041,2.186251 0.136996,4.612869 0.376066,6.865039 0.292815,2.758461 0.245724,2.552249 0.581729,2.547481 0.162127,-0.0025 0.739893,0.167839 1.283927,0.378093 1.403738,0.542502 3.311333,1.02458 6.65602,1.682073 1.154448,0.226942 4.487544,0.23926 6.498393,0.02402 z m -0.778922,-8.04469 c 0.664163,-1.318279 1.327468,-3.918841 1.606426,-6.298154 0.136707,-1.16601 0.143794,-1.672921 0.04082,-2.922471 -0.08249,-1.001229 -0.08857,-1.614995 -0.018,-1.817426 0.104373,-0.299399 0.08279,-0.321116 -1.0545,-1.061009 -1.306188,-0.849777 -5.285329,-2.898587 -6.634984,-3.416272 -0.950852,-0.364715 -3.719696,-1.113173 -4.115704,-1.112529 -0.23538,3.84e-4 -0.240032,0.02951 -0.248292,1.556337 -0.0046,0.855775 -0.06023,1.733453 -0.123543,1.950402 l -0.115127,0.394451 0.986451,1.079977 c 3.465981,3.794568 5.193324,6.015068 7.913087,10.172266 0.756508,1.156334 1.391553,2.102422 1.41121,2.102422 0.01965,0 0.178122,-0.282598 0.352137,-0.627994 z m 94.923761,-5.157378 c 0.75086,-0.578939 1.80754,-1.392052 2.34816,-1.806916 0.54062,-0.414868 1.81846,-1.421839 2.83963,-2.237714 1.02118,-0.815879 2.37234,-1.871258 3.00258,-2.345287 0.96317,-0.724438 3.93269,-3.291123 3.93269,-3.399195 0,-0.04281 -1.38924,0.478524 -1.65695,0.621794 -0.44219,0.23666 -8.73682,2.966231 -9.7562,3.210544 -0.82932,0.198761 -1.14859,0.327291 -1.32658,0.53404 -0.26685,0.309962 -0.7262,1.616109 -0.96526,2.744741 -0.16175,0.763583 -0.23471,3.661468 -0.0957,3.800483 0.0949,0.09488 0.12399,0.07541 1.67763,-1.12249 z M 69.525714,23.180852 c -0.9365,-1.183949 -4.276622,-4.99031 -5.486775,-6.252661 -0.691023,-0.72083 -1.787511,-1.802074 -2.436632,-2.402767 -0.955666,-0.884364 -1.166328,-1.036555 -1.107188,-0.799883 0.120592,0.482623 0.479107,4.170382 0.677657,6.97063 l 0.07357,1.037559 0.61649,0.255222 c 2.441718,1.010864 5.311468,1.663304 7.697566,1.750059 l 0.418856,0.01523 z M 185.468,22.844323 c 0.006,-0.01015 0.0705,-0.534478 0.14313,-1.165201 0.0726,-0.630727 0.25823,-2.031431 0.41241,-3.112679 0.31123,-2.182525 0.41648,-5.242404 0.18032,-5.242404 -0.07,0 -0.70891,0.522585 -1.41982,1.161299 -3.24825,2.918401 -3.91067,3.482579 -5.5247,4.705372 -0.94609,0.716756 -1.72017,1.340656 -1.72017,1.386446 0,0.08408 0.51084,0.324039 2.40277,1.128636 1.77224,0.753701 4.40109,1.358666 5.24218,1.20636 0.15005,-0.02716 0.27779,-0.05769 0.28388,-0.06783 z M 64.008513,12.430147 c -0.08113,-0.668786 -0.0086,-0.641068 -1.962967,-0.750399 l -1.307518,-0.07315 0.870652,0.802183 c 0.478859,0.4412 1.214682,1.132632 1.635168,1.53652 l 0.764516,0.734337 0.03443,-0.841625 c 0.01895,-0.462896 0.0033,-1.096438 -0.03426,-1.40787 z"
       id="path1" /></g></svg>
